<mxfile host="app.diagrams.net" modified="2024-01-08T10:18:39.003Z" agent="Mozilla/5.0 (Windows NT 10.0; Win64; x64) AppleWebKit/537.36 (KHTML, like Gecko) Chrome/119.0.0.0 Safari/537.36 OPR/105.0.0.0" etag="eGS9EulNjVo3l5IAURVO" version="22.1.17" type="github" pages="6">
  <diagram name="Template" id="q6N2uOUvhHIog4FE9aKj">
    <mxGraphModel dx="2515" dy="682" grid="1" gridSize="10" guides="1" tooltips="1" connect="1" arrows="1" fold="1" page="1" pageScale="1" pageWidth="850" pageHeight="1100" math="0" shadow="0">
      <root>
        <mxCell id="0" />
        <mxCell id="1" parent="0" />
        <mxCell id="h5Chd_hiSvlWFMQM-loi-1" value="A" style="ellipse;whiteSpace=wrap;html=1;aspect=fixed;" vertex="1" parent="1">
          <mxGeometry x="450" y="90" width="30" height="30" as="geometry" />
        </mxCell>
        <mxCell id="h5Chd_hiSvlWFMQM-loi-2" value="" style="endArrow=classic;html=1;rounded=0;exitX=1;exitY=1;exitDx=0;exitDy=0;entryX=0;entryY=0;entryDx=0;entryDy=0;" edge="1" parent="1" source="h5Chd_hiSvlWFMQM-loi-1" target="h5Chd_hiSvlWFMQM-loi-47">
          <mxGeometry width="50" height="50" relative="1" as="geometry">
            <mxPoint x="409.0000000000001" y="157" as="sourcePoint" />
            <mxPoint x="654.3933982822136" y="184.39339828221387" as="targetPoint" />
          </mxGeometry>
        </mxCell>
        <mxCell id="h5Chd_hiSvlWFMQM-loi-3" value="" style="endArrow=classic;html=1;rounded=0;exitX=0;exitY=1;exitDx=0;exitDy=0;entryX=1;entryY=0;entryDx=0;entryDy=0;" edge="1" parent="1" source="h5Chd_hiSvlWFMQM-loi-1" target="h5Chd_hiSvlWFMQM-loi-5">
          <mxGeometry width="50" height="50" relative="1" as="geometry">
            <mxPoint x="393.0000000000001" y="157" as="sourcePoint" />
            <mxPoint x="358" y="197" as="targetPoint" />
          </mxGeometry>
        </mxCell>
        <mxCell id="h5Chd_hiSvlWFMQM-loi-5" value="A" style="ellipse;whiteSpace=wrap;html=1;aspect=fixed;" vertex="1" parent="1">
          <mxGeometry x="150" y="180" width="30" height="30" as="geometry" />
        </mxCell>
        <mxCell id="h5Chd_hiSvlWFMQM-loi-16" value="" style="endArrow=classic;html=1;rounded=0;exitX=1;exitY=1;exitDx=0;exitDy=0;entryX=0;entryY=0;entryDx=0;entryDy=0;" edge="1" parent="1" source="h5Chd_hiSvlWFMQM-loi-5" target="h5Chd_hiSvlWFMQM-loi-34">
          <mxGeometry width="50" height="50" relative="1" as="geometry">
            <mxPoint x="360.0000000000001" y="220" as="sourcePoint" />
            <mxPoint x="274.3933982822059" y="244.39339828220602" as="targetPoint" />
          </mxGeometry>
        </mxCell>
        <mxCell id="h5Chd_hiSvlWFMQM-loi-18" value="A" style="ellipse;whiteSpace=wrap;html=1;aspect=fixed;" vertex="1" parent="1">
          <mxGeometry x="20" y="240" width="30" height="30" as="geometry" />
        </mxCell>
        <mxCell id="h5Chd_hiSvlWFMQM-loi-19" value="" style="endArrow=classic;html=1;rounded=0;exitX=0;exitY=1;exitDx=0;exitDy=0;entryX=1;entryY=0;entryDx=0;entryDy=0;" edge="1" parent="1" source="h5Chd_hiSvlWFMQM-loi-5" target="h5Chd_hiSvlWFMQM-loi-18">
          <mxGeometry width="50" height="50" relative="1" as="geometry">
            <mxPoint x="210" y="230" as="sourcePoint" />
            <mxPoint x="57" y="288" as="targetPoint" />
          </mxGeometry>
        </mxCell>
        <mxCell id="h5Chd_hiSvlWFMQM-loi-20" value="D" style="ellipse;whiteSpace=wrap;html=1;aspect=fixed;" vertex="1" parent="1">
          <mxGeometry x="-50" y="300" width="30" height="30" as="geometry" />
        </mxCell>
        <mxCell id="h5Chd_hiSvlWFMQM-loi-21" value="" style="endArrow=classic;html=1;rounded=0;exitX=0;exitY=1;exitDx=0;exitDy=0;entryX=1;entryY=0;entryDx=0;entryDy=0;" edge="1" parent="1" source="h5Chd_hiSvlWFMQM-loi-18" target="h5Chd_hiSvlWFMQM-loi-20">
          <mxGeometry width="50" height="50" relative="1" as="geometry">
            <mxPoint x="20" y="270" as="sourcePoint" />
            <mxPoint x="-58" y="308" as="targetPoint" />
          </mxGeometry>
        </mxCell>
        <mxCell id="h5Chd_hiSvlWFMQM-loi-22" value="A" style="ellipse;whiteSpace=wrap;html=1;aspect=fixed;" vertex="1" parent="1">
          <mxGeometry x="90" y="300" width="30" height="30" as="geometry" />
        </mxCell>
        <mxCell id="h5Chd_hiSvlWFMQM-loi-23" value="" style="endArrow=classic;html=1;rounded=0;exitX=1;exitY=1;exitDx=0;exitDy=0;entryX=0;entryY=0;entryDx=0;entryDy=0;" edge="1" parent="1" source="h5Chd_hiSvlWFMQM-loi-18" target="h5Chd_hiSvlWFMQM-loi-22">
          <mxGeometry width="50" height="50" relative="1" as="geometry">
            <mxPoint x="80" y="262" as="sourcePoint" />
            <mxPoint x="178" y="300" as="targetPoint" />
          </mxGeometry>
        </mxCell>
        <mxCell id="h5Chd_hiSvlWFMQM-loi-24" value="A" style="ellipse;whiteSpace=wrap;html=1;aspect=fixed;" vertex="1" parent="1">
          <mxGeometry x="-10" y="370" width="30" height="30" as="geometry" />
        </mxCell>
        <mxCell id="h5Chd_hiSvlWFMQM-loi-25" value="" style="endArrow=classic;html=1;rounded=0;entryX=0.334;entryY=0.072;entryDx=0;entryDy=0;exitX=1;exitY=1;exitDx=0;exitDy=0;entryPerimeter=0;" edge="1" parent="1" source="h5Chd_hiSvlWFMQM-loi-20" target="h5Chd_hiSvlWFMQM-loi-24">
          <mxGeometry width="50" height="50" relative="1" as="geometry">
            <mxPoint x="-30" y="330" as="sourcePoint" />
            <mxPoint x="18" y="368" as="targetPoint" />
          </mxGeometry>
        </mxCell>
        <mxCell id="h5Chd_hiSvlWFMQM-loi-26" value="A" style="ellipse;whiteSpace=wrap;html=1;aspect=fixed;" vertex="1" parent="1">
          <mxGeometry x="40" y="370" width="30" height="30" as="geometry" />
        </mxCell>
        <mxCell id="h5Chd_hiSvlWFMQM-loi-27" value="A" style="ellipse;whiteSpace=wrap;html=1;aspect=fixed;" vertex="1" parent="1">
          <mxGeometry x="130" y="370" width="30" height="30" as="geometry" />
        </mxCell>
        <mxCell id="h5Chd_hiSvlWFMQM-loi-28" value="" style="endArrow=classic;html=1;rounded=0;entryX=0.295;entryY=0.072;entryDx=0;entryDy=0;exitX=1;exitY=1;exitDx=0;exitDy=0;entryPerimeter=0;" edge="1" parent="1" source="h5Chd_hiSvlWFMQM-loi-22" target="h5Chd_hiSvlWFMQM-loi-27">
          <mxGeometry width="50" height="50" relative="1" as="geometry">
            <mxPoint x="118" y="330" as="sourcePoint" />
            <mxPoint x="140" y="376" as="targetPoint" />
          </mxGeometry>
        </mxCell>
        <mxCell id="h5Chd_hiSvlWFMQM-loi-31" value="" style="endArrow=classic;html=1;rounded=0;entryX=1;entryY=0;entryDx=0;entryDy=0;exitX=0;exitY=1;exitDx=0;exitDy=0;" edge="1" parent="1" source="h5Chd_hiSvlWFMQM-loi-22" target="h5Chd_hiSvlWFMQM-loi-26">
          <mxGeometry width="50" height="50" relative="1" as="geometry">
            <mxPoint x="53.5" y="330" as="sourcePoint" />
            <mxPoint x="76.5" y="376" as="targetPoint" />
          </mxGeometry>
        </mxCell>
        <mxCell id="h5Chd_hiSvlWFMQM-loi-32" value="A" style="ellipse;whiteSpace=wrap;html=1;aspect=fixed;" vertex="1" parent="1">
          <mxGeometry x="-90" y="370" width="30" height="30" as="geometry" />
        </mxCell>
        <mxCell id="h5Chd_hiSvlWFMQM-loi-33" value="" style="endArrow=classic;html=1;rounded=0;entryX=0.726;entryY=0.089;entryDx=0;entryDy=0;exitX=0;exitY=1;exitDx=0;exitDy=0;entryPerimeter=0;" edge="1" parent="1" source="h5Chd_hiSvlWFMQM-loi-20" target="h5Chd_hiSvlWFMQM-loi-32">
          <mxGeometry width="50" height="50" relative="1" as="geometry">
            <mxPoint x="-50" y="330" as="sourcePoint" />
            <mxPoint x="-78" y="378" as="targetPoint" />
          </mxGeometry>
        </mxCell>
        <mxCell id="h5Chd_hiSvlWFMQM-loi-34" value="A" style="ellipse;whiteSpace=wrap;html=1;aspect=fixed;" vertex="1" parent="1">
          <mxGeometry x="310" y="240" width="30" height="30" as="geometry" />
        </mxCell>
        <mxCell id="h5Chd_hiSvlWFMQM-loi-35" value="D" style="ellipse;whiteSpace=wrap;html=1;aspect=fixed;" vertex="1" parent="1">
          <mxGeometry x="240" y="300" width="30" height="30" as="geometry" />
        </mxCell>
        <mxCell id="h5Chd_hiSvlWFMQM-loi-36" value="" style="endArrow=classic;html=1;rounded=0;exitX=0;exitY=1;exitDx=0;exitDy=0;entryX=1;entryY=0;entryDx=0;entryDy=0;" edge="1" parent="1" source="h5Chd_hiSvlWFMQM-loi-34" target="h5Chd_hiSvlWFMQM-loi-35">
          <mxGeometry width="50" height="50" relative="1" as="geometry">
            <mxPoint x="310" y="270" as="sourcePoint" />
            <mxPoint x="232" y="308" as="targetPoint" />
          </mxGeometry>
        </mxCell>
        <mxCell id="h5Chd_hiSvlWFMQM-loi-37" value="A" style="ellipse;whiteSpace=wrap;html=1;aspect=fixed;" vertex="1" parent="1">
          <mxGeometry x="380" y="300" width="30" height="30" as="geometry" />
        </mxCell>
        <mxCell id="h5Chd_hiSvlWFMQM-loi-38" value="" style="endArrow=classic;html=1;rounded=0;exitX=1;exitY=1;exitDx=0;exitDy=0;entryX=0;entryY=0;entryDx=0;entryDy=0;" edge="1" parent="1" source="h5Chd_hiSvlWFMQM-loi-34" target="h5Chd_hiSvlWFMQM-loi-37">
          <mxGeometry width="50" height="50" relative="1" as="geometry">
            <mxPoint x="370" y="262" as="sourcePoint" />
            <mxPoint x="468" y="300" as="targetPoint" />
          </mxGeometry>
        </mxCell>
        <mxCell id="h5Chd_hiSvlWFMQM-loi-39" value="A" style="ellipse;whiteSpace=wrap;html=1;aspect=fixed;" vertex="1" parent="1">
          <mxGeometry x="280" y="370" width="30" height="30" as="geometry" />
        </mxCell>
        <mxCell id="h5Chd_hiSvlWFMQM-loi-40" value="" style="endArrow=classic;html=1;rounded=0;entryX=0.334;entryY=0.072;entryDx=0;entryDy=0;exitX=1;exitY=1;exitDx=0;exitDy=0;entryPerimeter=0;" edge="1" parent="1" source="h5Chd_hiSvlWFMQM-loi-35" target="h5Chd_hiSvlWFMQM-loi-39">
          <mxGeometry width="50" height="50" relative="1" as="geometry">
            <mxPoint x="260" y="330" as="sourcePoint" />
            <mxPoint x="308" y="368" as="targetPoint" />
          </mxGeometry>
        </mxCell>
        <mxCell id="h5Chd_hiSvlWFMQM-loi-41" value="A" style="ellipse;whiteSpace=wrap;html=1;aspect=fixed;" vertex="1" parent="1">
          <mxGeometry x="330" y="370" width="30" height="30" as="geometry" />
        </mxCell>
        <mxCell id="h5Chd_hiSvlWFMQM-loi-42" value="A" style="ellipse;whiteSpace=wrap;html=1;aspect=fixed;" vertex="1" parent="1">
          <mxGeometry x="420" y="370" width="30" height="30" as="geometry" />
        </mxCell>
        <mxCell id="h5Chd_hiSvlWFMQM-loi-43" value="" style="endArrow=classic;html=1;rounded=0;entryX=0.295;entryY=0.072;entryDx=0;entryDy=0;exitX=1;exitY=1;exitDx=0;exitDy=0;entryPerimeter=0;" edge="1" parent="1" source="h5Chd_hiSvlWFMQM-loi-37" target="h5Chd_hiSvlWFMQM-loi-42">
          <mxGeometry width="50" height="50" relative="1" as="geometry">
            <mxPoint x="408" y="330" as="sourcePoint" />
            <mxPoint x="430" y="376" as="targetPoint" />
          </mxGeometry>
        </mxCell>
        <mxCell id="h5Chd_hiSvlWFMQM-loi-44" value="" style="endArrow=classic;html=1;rounded=0;entryX=1;entryY=0;entryDx=0;entryDy=0;exitX=0;exitY=1;exitDx=0;exitDy=0;" edge="1" parent="1" source="h5Chd_hiSvlWFMQM-loi-37" target="h5Chd_hiSvlWFMQM-loi-41">
          <mxGeometry width="50" height="50" relative="1" as="geometry">
            <mxPoint x="343.5" y="330" as="sourcePoint" />
            <mxPoint x="366.5" y="376" as="targetPoint" />
          </mxGeometry>
        </mxCell>
        <mxCell id="h5Chd_hiSvlWFMQM-loi-45" value="A" style="ellipse;whiteSpace=wrap;html=1;aspect=fixed;" vertex="1" parent="1">
          <mxGeometry x="200" y="370" width="30" height="30" as="geometry" />
        </mxCell>
        <mxCell id="h5Chd_hiSvlWFMQM-loi-46" value="" style="endArrow=classic;html=1;rounded=0;entryX=0.726;entryY=0.089;entryDx=0;entryDy=0;exitX=0;exitY=1;exitDx=0;exitDy=0;entryPerimeter=0;" edge="1" parent="1" source="h5Chd_hiSvlWFMQM-loi-35" target="h5Chd_hiSvlWFMQM-loi-45">
          <mxGeometry width="50" height="50" relative="1" as="geometry">
            <mxPoint x="240" y="330" as="sourcePoint" />
            <mxPoint x="212" y="378" as="targetPoint" />
          </mxGeometry>
        </mxCell>
        <mxCell id="h5Chd_hiSvlWFMQM-loi-47" value="A" style="ellipse;whiteSpace=wrap;html=1;aspect=fixed;" vertex="1" parent="1">
          <mxGeometry x="700" y="180" width="30" height="30" as="geometry" />
        </mxCell>
        <mxCell id="h5Chd_hiSvlWFMQM-loi-48" value="" style="endArrow=classic;html=1;rounded=0;exitX=1;exitY=1;exitDx=0;exitDy=0;entryX=0;entryY=0;entryDx=0;entryDy=0;" edge="1" parent="1" source="h5Chd_hiSvlWFMQM-loi-47" target="h5Chd_hiSvlWFMQM-loi-63">
          <mxGeometry width="50" height="50" relative="1" as="geometry">
            <mxPoint x="910.0000000000001" y="220" as="sourcePoint" />
            <mxPoint x="824.3933982822059" y="244.39339828220602" as="targetPoint" />
          </mxGeometry>
        </mxCell>
        <mxCell id="h5Chd_hiSvlWFMQM-loi-49" value="A" style="ellipse;whiteSpace=wrap;html=1;aspect=fixed;" vertex="1" parent="1">
          <mxGeometry x="570" y="240" width="30" height="30" as="geometry" />
        </mxCell>
        <mxCell id="h5Chd_hiSvlWFMQM-loi-50" value="" style="endArrow=classic;html=1;rounded=0;exitX=0;exitY=1;exitDx=0;exitDy=0;entryX=1;entryY=0;entryDx=0;entryDy=0;" edge="1" parent="1" source="h5Chd_hiSvlWFMQM-loi-47" target="h5Chd_hiSvlWFMQM-loi-49">
          <mxGeometry width="50" height="50" relative="1" as="geometry">
            <mxPoint x="760" y="230" as="sourcePoint" />
            <mxPoint x="607" y="288" as="targetPoint" />
          </mxGeometry>
        </mxCell>
        <mxCell id="h5Chd_hiSvlWFMQM-loi-51" value="D" style="ellipse;whiteSpace=wrap;html=1;aspect=fixed;" vertex="1" parent="1">
          <mxGeometry x="500" y="300" width="30" height="30" as="geometry" />
        </mxCell>
        <mxCell id="h5Chd_hiSvlWFMQM-loi-52" value="" style="endArrow=classic;html=1;rounded=0;exitX=0;exitY=1;exitDx=0;exitDy=0;entryX=1;entryY=0;entryDx=0;entryDy=0;" edge="1" parent="1" source="h5Chd_hiSvlWFMQM-loi-49" target="h5Chd_hiSvlWFMQM-loi-51">
          <mxGeometry width="50" height="50" relative="1" as="geometry">
            <mxPoint x="570" y="270" as="sourcePoint" />
            <mxPoint x="492" y="308" as="targetPoint" />
          </mxGeometry>
        </mxCell>
        <mxCell id="h5Chd_hiSvlWFMQM-loi-53" value="A" style="ellipse;whiteSpace=wrap;html=1;aspect=fixed;" vertex="1" parent="1">
          <mxGeometry x="640" y="300" width="30" height="30" as="geometry" />
        </mxCell>
        <mxCell id="h5Chd_hiSvlWFMQM-loi-54" value="" style="endArrow=classic;html=1;rounded=0;exitX=1;exitY=1;exitDx=0;exitDy=0;entryX=0;entryY=0;entryDx=0;entryDy=0;" edge="1" parent="1" source="h5Chd_hiSvlWFMQM-loi-49" target="h5Chd_hiSvlWFMQM-loi-53">
          <mxGeometry width="50" height="50" relative="1" as="geometry">
            <mxPoint x="630" y="262" as="sourcePoint" />
            <mxPoint x="728" y="300" as="targetPoint" />
          </mxGeometry>
        </mxCell>
        <mxCell id="h5Chd_hiSvlWFMQM-loi-55" value="A" style="ellipse;whiteSpace=wrap;html=1;aspect=fixed;" vertex="1" parent="1">
          <mxGeometry x="540" y="370" width="30" height="30" as="geometry" />
        </mxCell>
        <mxCell id="h5Chd_hiSvlWFMQM-loi-56" value="" style="endArrow=classic;html=1;rounded=0;entryX=0.334;entryY=0.072;entryDx=0;entryDy=0;exitX=1;exitY=1;exitDx=0;exitDy=0;entryPerimeter=0;" edge="1" parent="1" source="h5Chd_hiSvlWFMQM-loi-51" target="h5Chd_hiSvlWFMQM-loi-55">
          <mxGeometry width="50" height="50" relative="1" as="geometry">
            <mxPoint x="520" y="330" as="sourcePoint" />
            <mxPoint x="568" y="368" as="targetPoint" />
          </mxGeometry>
        </mxCell>
        <mxCell id="h5Chd_hiSvlWFMQM-loi-57" value="A" style="ellipse;whiteSpace=wrap;html=1;aspect=fixed;" vertex="1" parent="1">
          <mxGeometry x="590" y="370" width="30" height="30" as="geometry" />
        </mxCell>
        <mxCell id="h5Chd_hiSvlWFMQM-loi-58" value="A" style="ellipse;whiteSpace=wrap;html=1;aspect=fixed;" vertex="1" parent="1">
          <mxGeometry x="680" y="370" width="30" height="30" as="geometry" />
        </mxCell>
        <mxCell id="h5Chd_hiSvlWFMQM-loi-59" value="" style="endArrow=classic;html=1;rounded=0;entryX=0.295;entryY=0.072;entryDx=0;entryDy=0;exitX=1;exitY=1;exitDx=0;exitDy=0;entryPerimeter=0;" edge="1" parent="1" source="h5Chd_hiSvlWFMQM-loi-53" target="h5Chd_hiSvlWFMQM-loi-58">
          <mxGeometry width="50" height="50" relative="1" as="geometry">
            <mxPoint x="668" y="330" as="sourcePoint" />
            <mxPoint x="690" y="376" as="targetPoint" />
          </mxGeometry>
        </mxCell>
        <mxCell id="h5Chd_hiSvlWFMQM-loi-60" value="" style="endArrow=classic;html=1;rounded=0;entryX=1;entryY=0;entryDx=0;entryDy=0;exitX=0;exitY=1;exitDx=0;exitDy=0;" edge="1" parent="1" source="h5Chd_hiSvlWFMQM-loi-53" target="h5Chd_hiSvlWFMQM-loi-57">
          <mxGeometry width="50" height="50" relative="1" as="geometry">
            <mxPoint x="603.5" y="330" as="sourcePoint" />
            <mxPoint x="626.5" y="376" as="targetPoint" />
          </mxGeometry>
        </mxCell>
        <mxCell id="h5Chd_hiSvlWFMQM-loi-61" value="A" style="ellipse;whiteSpace=wrap;html=1;aspect=fixed;" vertex="1" parent="1">
          <mxGeometry x="460" y="370" width="30" height="30" as="geometry" />
        </mxCell>
        <mxCell id="h5Chd_hiSvlWFMQM-loi-62" value="" style="endArrow=classic;html=1;rounded=0;entryX=0.726;entryY=0.089;entryDx=0;entryDy=0;exitX=0;exitY=1;exitDx=0;exitDy=0;entryPerimeter=0;" edge="1" parent="1" source="h5Chd_hiSvlWFMQM-loi-51" target="h5Chd_hiSvlWFMQM-loi-61">
          <mxGeometry width="50" height="50" relative="1" as="geometry">
            <mxPoint x="500" y="330" as="sourcePoint" />
            <mxPoint x="472" y="378" as="targetPoint" />
          </mxGeometry>
        </mxCell>
        <mxCell id="h5Chd_hiSvlWFMQM-loi-63" value="A" style="ellipse;whiteSpace=wrap;html=1;aspect=fixed;" vertex="1" parent="1">
          <mxGeometry x="860" y="240" width="30" height="30" as="geometry" />
        </mxCell>
        <mxCell id="h5Chd_hiSvlWFMQM-loi-64" value="D" style="ellipse;whiteSpace=wrap;html=1;aspect=fixed;" vertex="1" parent="1">
          <mxGeometry x="790" y="300" width="30" height="30" as="geometry" />
        </mxCell>
        <mxCell id="h5Chd_hiSvlWFMQM-loi-65" value="" style="endArrow=classic;html=1;rounded=0;exitX=0;exitY=1;exitDx=0;exitDy=0;entryX=1;entryY=0;entryDx=0;entryDy=0;" edge="1" parent="1" source="h5Chd_hiSvlWFMQM-loi-63" target="h5Chd_hiSvlWFMQM-loi-64">
          <mxGeometry width="50" height="50" relative="1" as="geometry">
            <mxPoint x="860" y="270" as="sourcePoint" />
            <mxPoint x="782" y="308" as="targetPoint" />
          </mxGeometry>
        </mxCell>
        <mxCell id="h5Chd_hiSvlWFMQM-loi-66" value="A" style="ellipse;whiteSpace=wrap;html=1;aspect=fixed;" vertex="1" parent="1">
          <mxGeometry x="930" y="300" width="30" height="30" as="geometry" />
        </mxCell>
        <mxCell id="h5Chd_hiSvlWFMQM-loi-67" value="" style="endArrow=classic;html=1;rounded=0;exitX=1;exitY=1;exitDx=0;exitDy=0;entryX=0;entryY=0;entryDx=0;entryDy=0;" edge="1" parent="1" source="h5Chd_hiSvlWFMQM-loi-63" target="h5Chd_hiSvlWFMQM-loi-66">
          <mxGeometry width="50" height="50" relative="1" as="geometry">
            <mxPoint x="920" y="262" as="sourcePoint" />
            <mxPoint x="1018" y="300" as="targetPoint" />
          </mxGeometry>
        </mxCell>
        <mxCell id="h5Chd_hiSvlWFMQM-loi-68" value="A" style="ellipse;whiteSpace=wrap;html=1;aspect=fixed;" vertex="1" parent="1">
          <mxGeometry x="830" y="370" width="30" height="30" as="geometry" />
        </mxCell>
        <mxCell id="h5Chd_hiSvlWFMQM-loi-69" value="" style="endArrow=classic;html=1;rounded=0;entryX=0.334;entryY=0.072;entryDx=0;entryDy=0;exitX=1;exitY=1;exitDx=0;exitDy=0;entryPerimeter=0;" edge="1" parent="1" source="h5Chd_hiSvlWFMQM-loi-64" target="h5Chd_hiSvlWFMQM-loi-68">
          <mxGeometry width="50" height="50" relative="1" as="geometry">
            <mxPoint x="810" y="330" as="sourcePoint" />
            <mxPoint x="858" y="368" as="targetPoint" />
          </mxGeometry>
        </mxCell>
        <mxCell id="h5Chd_hiSvlWFMQM-loi-70" value="A" style="ellipse;whiteSpace=wrap;html=1;aspect=fixed;" vertex="1" parent="1">
          <mxGeometry x="880" y="370" width="30" height="30" as="geometry" />
        </mxCell>
        <mxCell id="h5Chd_hiSvlWFMQM-loi-71" value="A" style="ellipse;whiteSpace=wrap;html=1;aspect=fixed;" vertex="1" parent="1">
          <mxGeometry x="970" y="370" width="30" height="30" as="geometry" />
        </mxCell>
        <mxCell id="h5Chd_hiSvlWFMQM-loi-72" value="" style="endArrow=classic;html=1;rounded=0;entryX=0.295;entryY=0.072;entryDx=0;entryDy=0;exitX=1;exitY=1;exitDx=0;exitDy=0;entryPerimeter=0;" edge="1" parent="1" source="h5Chd_hiSvlWFMQM-loi-66" target="h5Chd_hiSvlWFMQM-loi-71">
          <mxGeometry width="50" height="50" relative="1" as="geometry">
            <mxPoint x="958" y="330" as="sourcePoint" />
            <mxPoint x="980" y="376" as="targetPoint" />
          </mxGeometry>
        </mxCell>
        <mxCell id="h5Chd_hiSvlWFMQM-loi-73" value="" style="endArrow=classic;html=1;rounded=0;entryX=1;entryY=0;entryDx=0;entryDy=0;exitX=0;exitY=1;exitDx=0;exitDy=0;" edge="1" parent="1" source="h5Chd_hiSvlWFMQM-loi-66" target="h5Chd_hiSvlWFMQM-loi-70">
          <mxGeometry width="50" height="50" relative="1" as="geometry">
            <mxPoint x="893.5" y="330" as="sourcePoint" />
            <mxPoint x="916.5" y="376" as="targetPoint" />
          </mxGeometry>
        </mxCell>
        <mxCell id="h5Chd_hiSvlWFMQM-loi-74" value="A" style="ellipse;whiteSpace=wrap;html=1;aspect=fixed;" vertex="1" parent="1">
          <mxGeometry x="750" y="370" width="30" height="30" as="geometry" />
        </mxCell>
        <mxCell id="h5Chd_hiSvlWFMQM-loi-75" value="" style="endArrow=classic;html=1;rounded=0;entryX=0.726;entryY=0.089;entryDx=0;entryDy=0;exitX=0;exitY=1;exitDx=0;exitDy=0;entryPerimeter=0;" edge="1" parent="1" source="h5Chd_hiSvlWFMQM-loi-64" target="h5Chd_hiSvlWFMQM-loi-74">
          <mxGeometry width="50" height="50" relative="1" as="geometry">
            <mxPoint x="790" y="330" as="sourcePoint" />
            <mxPoint x="762" y="378" as="targetPoint" />
          </mxGeometry>
        </mxCell>
      </root>
    </mxGraphModel>
  </diagram>
  <diagram id="COrmvkWkfiySiZQCqNvD" name="1">
    <mxGraphModel dx="2136" dy="527" grid="1" gridSize="10" guides="1" tooltips="1" connect="1" arrows="1" fold="1" page="1" pageScale="1" pageWidth="850" pageHeight="1100" math="0" shadow="0">
      <root>
        <mxCell id="0" />
        <mxCell id="1" parent="0" />
        <mxCell id="NsGpaIVUK3-6w0Tgeduw-1" value="_" style="ellipse;whiteSpace=wrap;html=1;aspect=fixed;" vertex="1" parent="1">
          <mxGeometry x="450" y="90" width="30" height="30" as="geometry" />
        </mxCell>
        <mxCell id="NsGpaIVUK3-6w0Tgeduw-2" value="" style="endArrow=classic;html=1;rounded=0;exitX=1;exitY=1;exitDx=0;exitDy=0;entryX=0;entryY=0;entryDx=0;entryDy=0;" edge="1" parent="1" source="NsGpaIVUK3-6w0Tgeduw-1" target="NsGpaIVUK3-6w0Tgeduw-33">
          <mxGeometry width="50" height="50" relative="1" as="geometry">
            <mxPoint x="409.0000000000001" y="157" as="sourcePoint" />
            <mxPoint x="654.3933982822136" y="184.39339828221387" as="targetPoint" />
          </mxGeometry>
        </mxCell>
        <mxCell id="NsGpaIVUK3-6w0Tgeduw-3" value="" style="endArrow=classic;html=1;rounded=0;exitX=0;exitY=1;exitDx=0;exitDy=0;entryX=1;entryY=0;entryDx=0;entryDy=0;" edge="1" parent="1" source="NsGpaIVUK3-6w0Tgeduw-1" target="NsGpaIVUK3-6w0Tgeduw-4">
          <mxGeometry width="50" height="50" relative="1" as="geometry">
            <mxPoint x="393.0000000000001" y="157" as="sourcePoint" />
            <mxPoint x="358" y="197" as="targetPoint" />
          </mxGeometry>
        </mxCell>
        <mxCell id="NsGpaIVUK3-6w0Tgeduw-4" value="T" style="ellipse;whiteSpace=wrap;html=1;aspect=fixed;" vertex="1" parent="1">
          <mxGeometry x="110" y="180" width="30" height="30" as="geometry" />
        </mxCell>
        <mxCell id="NsGpaIVUK3-6w0Tgeduw-5" value="" style="endArrow=classic;html=1;rounded=0;exitX=1;exitY=1;exitDx=0;exitDy=0;entryX=0;entryY=0;entryDx=0;entryDy=0;" edge="1" parent="1" source="NsGpaIVUK3-6w0Tgeduw-4" target="NsGpaIVUK3-6w0Tgeduw-20">
          <mxGeometry width="50" height="50" relative="1" as="geometry">
            <mxPoint x="320.0000000000001" y="220" as="sourcePoint" />
            <mxPoint x="234.3933982822059" y="244.39339828220602" as="targetPoint" />
          </mxGeometry>
        </mxCell>
        <mxCell id="NsGpaIVUK3-6w0Tgeduw-6" value="T" style="ellipse;whiteSpace=wrap;html=1;aspect=fixed;" vertex="1" parent="1">
          <mxGeometry x="-20" y="240" width="30" height="30" as="geometry" />
        </mxCell>
        <mxCell id="NsGpaIVUK3-6w0Tgeduw-7" value="" style="endArrow=classic;html=1;rounded=0;exitX=0;exitY=1;exitDx=0;exitDy=0;entryX=1;entryY=0;entryDx=0;entryDy=0;" edge="1" parent="1" source="NsGpaIVUK3-6w0Tgeduw-4" target="NsGpaIVUK3-6w0Tgeduw-6">
          <mxGeometry width="50" height="50" relative="1" as="geometry">
            <mxPoint x="170" y="230" as="sourcePoint" />
            <mxPoint x="17" y="288" as="targetPoint" />
          </mxGeometry>
        </mxCell>
        <mxCell id="NsGpaIVUK3-6w0Tgeduw-8" value="D" style="ellipse;whiteSpace=wrap;html=1;aspect=fixed;" vertex="1" parent="1">
          <mxGeometry x="-90" y="300" width="30" height="30" as="geometry" />
        </mxCell>
        <mxCell id="NsGpaIVUK3-6w0Tgeduw-9" value="" style="endArrow=classic;html=1;rounded=0;exitX=0;exitY=1;exitDx=0;exitDy=0;entryX=1;entryY=0;entryDx=0;entryDy=0;" edge="1" parent="1" source="NsGpaIVUK3-6w0Tgeduw-6" target="NsGpaIVUK3-6w0Tgeduw-8">
          <mxGeometry width="50" height="50" relative="1" as="geometry">
            <mxPoint x="-20" y="270" as="sourcePoint" />
            <mxPoint x="-98" y="308" as="targetPoint" />
          </mxGeometry>
        </mxCell>
        <mxCell id="NsGpaIVUK3-6w0Tgeduw-10" value="_" style="ellipse;whiteSpace=wrap;html=1;aspect=fixed;" vertex="1" parent="1">
          <mxGeometry x="50" y="300" width="30" height="30" as="geometry" />
        </mxCell>
        <mxCell id="NsGpaIVUK3-6w0Tgeduw-11" value="" style="endArrow=classic;html=1;rounded=0;exitX=1;exitY=1;exitDx=0;exitDy=0;entryX=0;entryY=0;entryDx=0;entryDy=0;" edge="1" parent="1" source="NsGpaIVUK3-6w0Tgeduw-6" target="NsGpaIVUK3-6w0Tgeduw-10">
          <mxGeometry width="50" height="50" relative="1" as="geometry">
            <mxPoint x="40" y="262" as="sourcePoint" />
            <mxPoint x="138" y="300" as="targetPoint" />
          </mxGeometry>
        </mxCell>
        <mxCell id="NsGpaIVUK3-6w0Tgeduw-14" value="A" style="ellipse;whiteSpace=wrap;html=1;aspect=fixed;" vertex="1" parent="1">
          <mxGeometry y="370" width="30" height="30" as="geometry" />
        </mxCell>
        <mxCell id="NsGpaIVUK3-6w0Tgeduw-15" value="S" style="ellipse;whiteSpace=wrap;html=1;aspect=fixed;" vertex="1" parent="1">
          <mxGeometry x="90" y="370" width="30" height="30" as="geometry" />
        </mxCell>
        <mxCell id="NsGpaIVUK3-6w0Tgeduw-16" value="" style="endArrow=classic;html=1;rounded=0;entryX=0.295;entryY=0.072;entryDx=0;entryDy=0;exitX=1;exitY=1;exitDx=0;exitDy=0;entryPerimeter=0;" edge="1" parent="1" source="NsGpaIVUK3-6w0Tgeduw-10" target="NsGpaIVUK3-6w0Tgeduw-15">
          <mxGeometry width="50" height="50" relative="1" as="geometry">
            <mxPoint x="78" y="330" as="sourcePoint" />
            <mxPoint x="100" y="376" as="targetPoint" />
          </mxGeometry>
        </mxCell>
        <mxCell id="NsGpaIVUK3-6w0Tgeduw-17" value="" style="endArrow=classic;html=1;rounded=0;entryX=1;entryY=0;entryDx=0;entryDy=0;exitX=0;exitY=1;exitDx=0;exitDy=0;" edge="1" parent="1" source="NsGpaIVUK3-6w0Tgeduw-10" target="NsGpaIVUK3-6w0Tgeduw-14">
          <mxGeometry width="50" height="50" relative="1" as="geometry">
            <mxPoint x="13.5" y="330" as="sourcePoint" />
            <mxPoint x="36.5" y="376" as="targetPoint" />
          </mxGeometry>
        </mxCell>
        <mxCell id="NsGpaIVUK3-6w0Tgeduw-20" value="T" style="ellipse;whiteSpace=wrap;html=1;aspect=fixed;" vertex="1" parent="1">
          <mxGeometry x="270" y="240" width="30" height="30" as="geometry" />
        </mxCell>
        <mxCell id="NsGpaIVUK3-6w0Tgeduw-21" value="U" style="ellipse;whiteSpace=wrap;html=1;aspect=fixed;" vertex="1" parent="1">
          <mxGeometry x="200" y="300" width="30" height="30" as="geometry" />
        </mxCell>
        <mxCell id="NsGpaIVUK3-6w0Tgeduw-22" value="" style="endArrow=classic;html=1;rounded=0;exitX=0;exitY=1;exitDx=0;exitDy=0;entryX=1;entryY=0;entryDx=0;entryDy=0;" edge="1" parent="1" source="NsGpaIVUK3-6w0Tgeduw-20" target="NsGpaIVUK3-6w0Tgeduw-21">
          <mxGeometry width="50" height="50" relative="1" as="geometry">
            <mxPoint x="270" y="270" as="sourcePoint" />
            <mxPoint x="192" y="308" as="targetPoint" />
          </mxGeometry>
        </mxCell>
        <mxCell id="NsGpaIVUK3-6w0Tgeduw-23" value="R" style="ellipse;whiteSpace=wrap;html=1;aspect=fixed;" vertex="1" parent="1">
          <mxGeometry x="340" y="300" width="30" height="30" as="geometry" />
        </mxCell>
        <mxCell id="NsGpaIVUK3-6w0Tgeduw-24" value="" style="endArrow=classic;html=1;rounded=0;exitX=1;exitY=1;exitDx=0;exitDy=0;entryX=0;entryY=0;entryDx=0;entryDy=0;" edge="1" parent="1" source="NsGpaIVUK3-6w0Tgeduw-20" target="NsGpaIVUK3-6w0Tgeduw-23">
          <mxGeometry width="50" height="50" relative="1" as="geometry">
            <mxPoint x="330" y="262" as="sourcePoint" />
            <mxPoint x="428" y="300" as="targetPoint" />
          </mxGeometry>
        </mxCell>
        <mxCell id="NsGpaIVUK3-6w0Tgeduw-25" value="C" style="ellipse;whiteSpace=wrap;html=1;aspect=fixed;" vertex="1" parent="1">
          <mxGeometry x="240" y="370" width="30" height="30" as="geometry" />
        </mxCell>
        <mxCell id="NsGpaIVUK3-6w0Tgeduw-26" value="" style="endArrow=classic;html=1;rounded=0;entryX=0.334;entryY=0.072;entryDx=0;entryDy=0;exitX=1;exitY=1;exitDx=0;exitDy=0;entryPerimeter=0;" edge="1" parent="1" source="NsGpaIVUK3-6w0Tgeduw-21" target="NsGpaIVUK3-6w0Tgeduw-25">
          <mxGeometry width="50" height="50" relative="1" as="geometry">
            <mxPoint x="220" y="330" as="sourcePoint" />
            <mxPoint x="268" y="368" as="targetPoint" />
          </mxGeometry>
        </mxCell>
        <mxCell id="NsGpaIVUK3-6w0Tgeduw-27" value="U" style="ellipse;whiteSpace=wrap;html=1;aspect=fixed;" vertex="1" parent="1">
          <mxGeometry x="290" y="370" width="30" height="30" as="geometry" />
        </mxCell>
        <mxCell id="NsGpaIVUK3-6w0Tgeduw-28" value="E" style="ellipse;whiteSpace=wrap;html=1;aspect=fixed;" vertex="1" parent="1">
          <mxGeometry x="380" y="370" width="30" height="30" as="geometry" />
        </mxCell>
        <mxCell id="NsGpaIVUK3-6w0Tgeduw-29" value="" style="endArrow=classic;html=1;rounded=0;entryX=0.295;entryY=0.072;entryDx=0;entryDy=0;exitX=1;exitY=1;exitDx=0;exitDy=0;entryPerimeter=0;" edge="1" parent="1" source="NsGpaIVUK3-6w0Tgeduw-23" target="NsGpaIVUK3-6w0Tgeduw-28">
          <mxGeometry width="50" height="50" relative="1" as="geometry">
            <mxPoint x="368" y="330" as="sourcePoint" />
            <mxPoint x="390" y="376" as="targetPoint" />
          </mxGeometry>
        </mxCell>
        <mxCell id="NsGpaIVUK3-6w0Tgeduw-30" value="" style="endArrow=classic;html=1;rounded=0;entryX=1;entryY=0;entryDx=0;entryDy=0;exitX=0;exitY=1;exitDx=0;exitDy=0;" edge="1" parent="1" source="NsGpaIVUK3-6w0Tgeduw-23" target="NsGpaIVUK3-6w0Tgeduw-27">
          <mxGeometry width="50" height="50" relative="1" as="geometry">
            <mxPoint x="303.5" y="330" as="sourcePoint" />
            <mxPoint x="326.5" y="376" as="targetPoint" />
          </mxGeometry>
        </mxCell>
        <mxCell id="NsGpaIVUK3-6w0Tgeduw-31" value="R" style="ellipse;whiteSpace=wrap;html=1;aspect=fixed;" vertex="1" parent="1">
          <mxGeometry x="160" y="370" width="30" height="30" as="geometry" />
        </mxCell>
        <mxCell id="NsGpaIVUK3-6w0Tgeduw-32" value="" style="endArrow=classic;html=1;rounded=0;entryX=0.726;entryY=0.089;entryDx=0;entryDy=0;exitX=0;exitY=1;exitDx=0;exitDy=0;entryPerimeter=0;" edge="1" parent="1" source="NsGpaIVUK3-6w0Tgeduw-21" target="NsGpaIVUK3-6w0Tgeduw-31">
          <mxGeometry width="50" height="50" relative="1" as="geometry">
            <mxPoint x="200" y="330" as="sourcePoint" />
            <mxPoint x="172" y="378" as="targetPoint" />
          </mxGeometry>
        </mxCell>
        <mxCell id="NsGpaIVUK3-6w0Tgeduw-33" value="O" style="ellipse;whiteSpace=wrap;html=1;aspect=fixed;" vertex="1" parent="1">
          <mxGeometry x="740" y="180" width="30" height="30" as="geometry" />
        </mxCell>
        <mxCell id="NsGpaIVUK3-6w0Tgeduw-34" value="" style="endArrow=classic;html=1;rounded=0;exitX=1;exitY=1;exitDx=0;exitDy=0;entryX=0;entryY=0;entryDx=0;entryDy=0;" edge="1" parent="1" source="NsGpaIVUK3-6w0Tgeduw-33" target="NsGpaIVUK3-6w0Tgeduw-49">
          <mxGeometry width="50" height="50" relative="1" as="geometry">
            <mxPoint x="950.0000000000001" y="220" as="sourcePoint" />
            <mxPoint x="864.3933982822059" y="244.39339828220602" as="targetPoint" />
          </mxGeometry>
        </mxCell>
        <mxCell id="NsGpaIVUK3-6w0Tgeduw-35" value="_" style="ellipse;whiteSpace=wrap;html=1;aspect=fixed;" vertex="1" parent="1">
          <mxGeometry x="610" y="240" width="30" height="30" as="geometry" />
        </mxCell>
        <mxCell id="NsGpaIVUK3-6w0Tgeduw-36" value="" style="endArrow=classic;html=1;rounded=0;exitX=0;exitY=1;exitDx=0;exitDy=0;entryX=1;entryY=0;entryDx=0;entryDy=0;" edge="1" parent="1" source="NsGpaIVUK3-6w0Tgeduw-33" target="NsGpaIVUK3-6w0Tgeduw-35">
          <mxGeometry width="50" height="50" relative="1" as="geometry">
            <mxPoint x="800" y="230" as="sourcePoint" />
            <mxPoint x="647" y="288" as="targetPoint" />
          </mxGeometry>
        </mxCell>
        <mxCell id="NsGpaIVUK3-6w0Tgeduw-37" value="N" style="ellipse;whiteSpace=wrap;html=1;aspect=fixed;" vertex="1" parent="1">
          <mxGeometry x="540" y="300" width="30" height="30" as="geometry" />
        </mxCell>
        <mxCell id="NsGpaIVUK3-6w0Tgeduw-38" value="" style="endArrow=classic;html=1;rounded=0;exitX=0;exitY=1;exitDx=0;exitDy=0;entryX=1;entryY=0;entryDx=0;entryDy=0;" edge="1" parent="1" source="NsGpaIVUK3-6w0Tgeduw-35" target="NsGpaIVUK3-6w0Tgeduw-37">
          <mxGeometry width="50" height="50" relative="1" as="geometry">
            <mxPoint x="610" y="270" as="sourcePoint" />
            <mxPoint x="532" y="308" as="targetPoint" />
          </mxGeometry>
        </mxCell>
        <mxCell id="NsGpaIVUK3-6w0Tgeduw-39" value="L" style="ellipse;whiteSpace=wrap;html=1;aspect=fixed;" vertex="1" parent="1">
          <mxGeometry x="680" y="300" width="30" height="30" as="geometry" />
        </mxCell>
        <mxCell id="NsGpaIVUK3-6w0Tgeduw-40" value="" style="endArrow=classic;html=1;rounded=0;exitX=1;exitY=1;exitDx=0;exitDy=0;entryX=0;entryY=0;entryDx=0;entryDy=0;" edge="1" parent="1" source="NsGpaIVUK3-6w0Tgeduw-35" target="NsGpaIVUK3-6w0Tgeduw-39">
          <mxGeometry width="50" height="50" relative="1" as="geometry">
            <mxPoint x="670" y="262" as="sourcePoint" />
            <mxPoint x="768" y="300" as="targetPoint" />
          </mxGeometry>
        </mxCell>
        <mxCell id="NsGpaIVUK3-6w0Tgeduw-41" value="D" style="ellipse;whiteSpace=wrap;html=1;aspect=fixed;" vertex="1" parent="1">
          <mxGeometry x="580" y="370" width="30" height="30" as="geometry" />
        </mxCell>
        <mxCell id="NsGpaIVUK3-6w0Tgeduw-42" value="" style="endArrow=classic;html=1;rounded=0;entryX=0.334;entryY=0.072;entryDx=0;entryDy=0;exitX=1;exitY=1;exitDx=0;exitDy=0;entryPerimeter=0;" edge="1" parent="1" source="NsGpaIVUK3-6w0Tgeduw-37" target="NsGpaIVUK3-6w0Tgeduw-41">
          <mxGeometry width="50" height="50" relative="1" as="geometry">
            <mxPoint x="560" y="330" as="sourcePoint" />
            <mxPoint x="608" y="368" as="targetPoint" />
          </mxGeometry>
        </mxCell>
        <mxCell id="NsGpaIVUK3-6w0Tgeduw-43" value="A" style="ellipse;whiteSpace=wrap;html=1;aspect=fixed;" vertex="1" parent="1">
          <mxGeometry x="630" y="370" width="30" height="30" as="geometry" />
        </mxCell>
        <mxCell id="NsGpaIVUK3-6w0Tgeduw-44" value="G" style="ellipse;whiteSpace=wrap;html=1;aspect=fixed;" vertex="1" parent="1">
          <mxGeometry x="720" y="370" width="30" height="30" as="geometry" />
        </mxCell>
        <mxCell id="NsGpaIVUK3-6w0Tgeduw-45" value="" style="endArrow=classic;html=1;rounded=0;entryX=0.295;entryY=0.072;entryDx=0;entryDy=0;exitX=1;exitY=1;exitDx=0;exitDy=0;entryPerimeter=0;" edge="1" parent="1" source="NsGpaIVUK3-6w0Tgeduw-39" target="NsGpaIVUK3-6w0Tgeduw-44">
          <mxGeometry width="50" height="50" relative="1" as="geometry">
            <mxPoint x="708" y="330" as="sourcePoint" />
            <mxPoint x="730" y="376" as="targetPoint" />
          </mxGeometry>
        </mxCell>
        <mxCell id="NsGpaIVUK3-6w0Tgeduw-46" value="" style="endArrow=classic;html=1;rounded=0;entryX=1;entryY=0;entryDx=0;entryDy=0;exitX=0;exitY=1;exitDx=0;exitDy=0;" edge="1" parent="1" source="NsGpaIVUK3-6w0Tgeduw-39" target="NsGpaIVUK3-6w0Tgeduw-43">
          <mxGeometry width="50" height="50" relative="1" as="geometry">
            <mxPoint x="643.5" y="330" as="sourcePoint" />
            <mxPoint x="666.5" y="376" as="targetPoint" />
          </mxGeometry>
        </mxCell>
        <mxCell id="NsGpaIVUK3-6w0Tgeduw-47" value="A" style="ellipse;whiteSpace=wrap;html=1;aspect=fixed;" vertex="1" parent="1">
          <mxGeometry x="500" y="370" width="30" height="30" as="geometry" />
        </mxCell>
        <mxCell id="NsGpaIVUK3-6w0Tgeduw-48" value="" style="endArrow=classic;html=1;rounded=0;entryX=0.726;entryY=0.089;entryDx=0;entryDy=0;exitX=0;exitY=1;exitDx=0;exitDy=0;entryPerimeter=0;" edge="1" parent="1" source="NsGpaIVUK3-6w0Tgeduw-37" target="NsGpaIVUK3-6w0Tgeduw-47">
          <mxGeometry width="50" height="50" relative="1" as="geometry">
            <mxPoint x="540" y="330" as="sourcePoint" />
            <mxPoint x="512" y="378" as="targetPoint" />
          </mxGeometry>
        </mxCell>
        <mxCell id="NsGpaIVUK3-6w0Tgeduw-49" value="H" style="ellipse;whiteSpace=wrap;html=1;aspect=fixed;" vertex="1" parent="1">
          <mxGeometry x="900" y="240" width="30" height="30" as="geometry" />
        </mxCell>
        <mxCell id="NsGpaIVUK3-6w0Tgeduw-50" value="I" style="ellipse;whiteSpace=wrap;html=1;aspect=fixed;" vertex="1" parent="1">
          <mxGeometry x="830" y="300" width="30" height="30" as="geometry" />
        </mxCell>
        <mxCell id="NsGpaIVUK3-6w0Tgeduw-51" value="" style="endArrow=classic;html=1;rounded=0;exitX=0;exitY=1;exitDx=0;exitDy=0;entryX=1;entryY=0;entryDx=0;entryDy=0;" edge="1" parent="1" source="NsGpaIVUK3-6w0Tgeduw-49" target="NsGpaIVUK3-6w0Tgeduw-50">
          <mxGeometry width="50" height="50" relative="1" as="geometry">
            <mxPoint x="900" y="270" as="sourcePoint" />
            <mxPoint x="822" y="308" as="targetPoint" />
          </mxGeometry>
        </mxCell>
        <mxCell id="NsGpaIVUK3-6w0Tgeduw-52" value="S" style="ellipse;whiteSpace=wrap;html=1;aspect=fixed;" vertex="1" parent="1">
          <mxGeometry x="970" y="300" width="30" height="30" as="geometry" />
        </mxCell>
        <mxCell id="NsGpaIVUK3-6w0Tgeduw-53" value="" style="endArrow=classic;html=1;rounded=0;exitX=1;exitY=1;exitDx=0;exitDy=0;entryX=0;entryY=0;entryDx=0;entryDy=0;" edge="1" parent="1" source="NsGpaIVUK3-6w0Tgeduw-49" target="NsGpaIVUK3-6w0Tgeduw-52">
          <mxGeometry width="50" height="50" relative="1" as="geometry">
            <mxPoint x="960" y="262" as="sourcePoint" />
            <mxPoint x="1058" y="300" as="targetPoint" />
          </mxGeometry>
        </mxCell>
        <mxCell id="NsGpaIVUK3-6w0Tgeduw-54" value="T" style="ellipse;whiteSpace=wrap;html=1;aspect=fixed;" vertex="1" parent="1">
          <mxGeometry x="870" y="370" width="30" height="30" as="geometry" />
        </mxCell>
        <mxCell id="NsGpaIVUK3-6w0Tgeduw-55" value="" style="endArrow=classic;html=1;rounded=0;entryX=0.334;entryY=0.072;entryDx=0;entryDy=0;exitX=1;exitY=1;exitDx=0;exitDy=0;entryPerimeter=0;" edge="1" parent="1" source="NsGpaIVUK3-6w0Tgeduw-50" target="NsGpaIVUK3-6w0Tgeduw-54">
          <mxGeometry width="50" height="50" relative="1" as="geometry">
            <mxPoint x="850" y="330" as="sourcePoint" />
            <mxPoint x="898" y="368" as="targetPoint" />
          </mxGeometry>
        </mxCell>
        <mxCell id="NsGpaIVUK3-6w0Tgeduw-60" value="R" style="ellipse;whiteSpace=wrap;html=1;aspect=fixed;" vertex="1" parent="1">
          <mxGeometry x="790" y="370" width="30" height="30" as="geometry" />
        </mxCell>
        <mxCell id="NsGpaIVUK3-6w0Tgeduw-61" value="" style="endArrow=classic;html=1;rounded=0;entryX=0.726;entryY=0.089;entryDx=0;entryDy=0;exitX=0;exitY=1;exitDx=0;exitDy=0;entryPerimeter=0;" edge="1" parent="1" source="NsGpaIVUK3-6w0Tgeduw-50" target="NsGpaIVUK3-6w0Tgeduw-60">
          <mxGeometry width="50" height="50" relative="1" as="geometry">
            <mxPoint x="830" y="330" as="sourcePoint" />
            <mxPoint x="802" y="378" as="targetPoint" />
          </mxGeometry>
        </mxCell>
        <mxCell id="o8alSCySLONKkuRwxQz7-1" value="" style="endArrow=classic;html=1;rounded=0;entryX=0;entryY=0;entryDx=0;entryDy=0;exitX=1;exitY=1;exitDx=0;exitDy=0;" edge="1" parent="1" source="NsGpaIVUK3-6w0Tgeduw-8" target="o8alSCySLONKkuRwxQz7-2">
          <mxGeometry width="50" height="50" relative="1" as="geometry">
            <mxPoint x="-60" y="330" as="sourcePoint" />
            <mxPoint x="-37" y="376" as="targetPoint" />
          </mxGeometry>
        </mxCell>
        <mxCell id="o8alSCySLONKkuRwxQz7-2" value="A" style="ellipse;whiteSpace=wrap;html=1;aspect=fixed;" vertex="1" parent="1">
          <mxGeometry x="-50" y="370" width="30" height="30" as="geometry" />
        </mxCell>
        <mxCell id="o8alSCySLONKkuRwxQz7-3" value="" style="endArrow=classic;html=1;rounded=0;entryX=0.83;entryY=0.074;entryDx=0;entryDy=0;entryPerimeter=0;" edge="1" parent="1" source="NsGpaIVUK3-6w0Tgeduw-52" target="o8alSCySLONKkuRwxQz7-4">
          <mxGeometry width="50" height="50" relative="1" as="geometry">
            <mxPoint x="910" y="320" as="sourcePoint" />
            <mxPoint x="950" y="370" as="targetPoint" />
          </mxGeometry>
        </mxCell>
        <mxCell id="o8alSCySLONKkuRwxQz7-4" value="M" style="ellipse;whiteSpace=wrap;html=1;aspect=fixed;" vertex="1" parent="1">
          <mxGeometry x="920" y="370" width="30" height="30" as="geometry" />
        </mxCell>
      </root>
    </mxGraphModel>
  </diagram>
  <diagram id="__GIGUfffsRa8VqDqNXL" name="2">
    <mxGraphModel dx="2515" dy="682" grid="1" gridSize="10" guides="1" tooltips="1" connect="1" arrows="1" fold="1" page="1" pageScale="1" pageWidth="850" pageHeight="1100" math="0" shadow="0">
      <root>
        <mxCell id="0" />
        <mxCell id="1" parent="0" />
        <mxCell id="uxPIrme_p7fA9JZxPVPv-1" value="A" style="ellipse;whiteSpace=wrap;html=1;aspect=fixed;" vertex="1" parent="1">
          <mxGeometry x="450" y="90" width="30" height="30" as="geometry" />
        </mxCell>
        <mxCell id="uxPIrme_p7fA9JZxPVPv-2" value="" style="endArrow=classic;html=1;rounded=0;exitX=1;exitY=1;exitDx=0;exitDy=0;entryX=0;entryY=0;entryDx=0;entryDy=0;" edge="1" parent="1" source="uxPIrme_p7fA9JZxPVPv-1" target="uxPIrme_p7fA9JZxPVPv-33">
          <mxGeometry width="50" height="50" relative="1" as="geometry">
            <mxPoint x="409.0000000000001" y="157" as="sourcePoint" />
            <mxPoint x="654.3933982822136" y="184.39339828221387" as="targetPoint" />
          </mxGeometry>
        </mxCell>
        <mxCell id="uxPIrme_p7fA9JZxPVPv-3" value="" style="endArrow=classic;html=1;rounded=0;exitX=0;exitY=1;exitDx=0;exitDy=0;entryX=1;entryY=0;entryDx=0;entryDy=0;" edge="1" parent="1" source="uxPIrme_p7fA9JZxPVPv-1" target="uxPIrme_p7fA9JZxPVPv-4">
          <mxGeometry width="50" height="50" relative="1" as="geometry">
            <mxPoint x="393.0000000000001" y="157" as="sourcePoint" />
            <mxPoint x="358" y="197" as="targetPoint" />
          </mxGeometry>
        </mxCell>
        <mxCell id="uxPIrme_p7fA9JZxPVPv-4" value="N" style="ellipse;whiteSpace=wrap;html=1;aspect=fixed;" vertex="1" parent="1">
          <mxGeometry x="150" y="180" width="30" height="30" as="geometry" />
        </mxCell>
        <mxCell id="uxPIrme_p7fA9JZxPVPv-5" value="" style="endArrow=classic;html=1;rounded=0;exitX=1;exitY=1;exitDx=0;exitDy=0;entryX=0;entryY=0;entryDx=0;entryDy=0;" edge="1" parent="1" source="uxPIrme_p7fA9JZxPVPv-4" target="uxPIrme_p7fA9JZxPVPv-20">
          <mxGeometry width="50" height="50" relative="1" as="geometry">
            <mxPoint x="360.0000000000001" y="220" as="sourcePoint" />
            <mxPoint x="274.3933982822059" y="244.39339828220602" as="targetPoint" />
          </mxGeometry>
        </mxCell>
        <mxCell id="uxPIrme_p7fA9JZxPVPv-6" value="M" style="ellipse;whiteSpace=wrap;html=1;aspect=fixed;" vertex="1" parent="1">
          <mxGeometry x="20" y="240" width="30" height="30" as="geometry" />
        </mxCell>
        <mxCell id="uxPIrme_p7fA9JZxPVPv-7" value="" style="endArrow=classic;html=1;rounded=0;exitX=0;exitY=1;exitDx=0;exitDy=0;entryX=1;entryY=0;entryDx=0;entryDy=0;" edge="1" parent="1" source="uxPIrme_p7fA9JZxPVPv-4" target="uxPIrme_p7fA9JZxPVPv-6">
          <mxGeometry width="50" height="50" relative="1" as="geometry">
            <mxPoint x="210" y="230" as="sourcePoint" />
            <mxPoint x="57" y="288" as="targetPoint" />
          </mxGeometry>
        </mxCell>
        <mxCell id="uxPIrme_p7fA9JZxPVPv-8" value="C" style="ellipse;whiteSpace=wrap;html=1;aspect=fixed;" vertex="1" parent="1">
          <mxGeometry x="-50" y="300" width="30" height="30" as="geometry" />
        </mxCell>
        <mxCell id="uxPIrme_p7fA9JZxPVPv-9" value="" style="endArrow=classic;html=1;rounded=0;exitX=0;exitY=1;exitDx=0;exitDy=0;entryX=1;entryY=0;entryDx=0;entryDy=0;" edge="1" parent="1" source="uxPIrme_p7fA9JZxPVPv-6" target="uxPIrme_p7fA9JZxPVPv-8">
          <mxGeometry width="50" height="50" relative="1" as="geometry">
            <mxPoint x="20" y="270" as="sourcePoint" />
            <mxPoint x="-58" y="308" as="targetPoint" />
          </mxGeometry>
        </mxCell>
        <mxCell id="uxPIrme_p7fA9JZxPVPv-10" value="U" style="ellipse;whiteSpace=wrap;html=1;aspect=fixed;" vertex="1" parent="1">
          <mxGeometry x="90" y="300" width="30" height="30" as="geometry" />
        </mxCell>
        <mxCell id="uxPIrme_p7fA9JZxPVPv-11" value="" style="endArrow=classic;html=1;rounded=0;exitX=1;exitY=1;exitDx=0;exitDy=0;entryX=0;entryY=0;entryDx=0;entryDy=0;" edge="1" parent="1" source="uxPIrme_p7fA9JZxPVPv-6" target="uxPIrme_p7fA9JZxPVPv-10">
          <mxGeometry width="50" height="50" relative="1" as="geometry">
            <mxPoint x="80" y="262" as="sourcePoint" />
            <mxPoint x="178" y="300" as="targetPoint" />
          </mxGeometry>
        </mxCell>
        <mxCell id="uxPIrme_p7fA9JZxPVPv-12" value="O" style="ellipse;whiteSpace=wrap;html=1;aspect=fixed;" vertex="1" parent="1">
          <mxGeometry x="-10" y="370" width="30" height="30" as="geometry" />
        </mxCell>
        <mxCell id="uxPIrme_p7fA9JZxPVPv-13" value="" style="endArrow=classic;html=1;rounded=0;entryX=0.334;entryY=0.072;entryDx=0;entryDy=0;exitX=1;exitY=1;exitDx=0;exitDy=0;entryPerimeter=0;" edge="1" parent="1" source="uxPIrme_p7fA9JZxPVPv-8" target="uxPIrme_p7fA9JZxPVPv-12">
          <mxGeometry width="50" height="50" relative="1" as="geometry">
            <mxPoint x="-30" y="330" as="sourcePoint" />
            <mxPoint x="18" y="368" as="targetPoint" />
          </mxGeometry>
        </mxCell>
        <mxCell id="uxPIrme_p7fA9JZxPVPv-14" value="M" style="ellipse;whiteSpace=wrap;html=1;aspect=fixed;" vertex="1" parent="1">
          <mxGeometry x="40" y="370" width="30" height="30" as="geometry" />
        </mxCell>
        <mxCell id="uxPIrme_p7fA9JZxPVPv-17" value="" style="endArrow=classic;html=1;rounded=0;entryX=1;entryY=0;entryDx=0;entryDy=0;exitX=0;exitY=1;exitDx=0;exitDy=0;" edge="1" parent="1" source="uxPIrme_p7fA9JZxPVPv-10" target="uxPIrme_p7fA9JZxPVPv-14">
          <mxGeometry width="50" height="50" relative="1" as="geometry">
            <mxPoint x="53.5" y="330" as="sourcePoint" />
            <mxPoint x="76.5" y="376" as="targetPoint" />
          </mxGeometry>
        </mxCell>
        <mxCell id="uxPIrme_p7fA9JZxPVPv-20" value="A" style="ellipse;whiteSpace=wrap;html=1;aspect=fixed;" vertex="1" parent="1">
          <mxGeometry x="310" y="240" width="30" height="30" as="geometry" />
        </mxCell>
        <mxCell id="uxPIrme_p7fA9JZxPVPv-21" value="I" style="ellipse;whiteSpace=wrap;html=1;aspect=fixed;" vertex="1" parent="1">
          <mxGeometry x="240" y="300" width="30" height="30" as="geometry" />
        </mxCell>
        <mxCell id="uxPIrme_p7fA9JZxPVPv-22" value="" style="endArrow=classic;html=1;rounded=0;exitX=0;exitY=1;exitDx=0;exitDy=0;entryX=1;entryY=0;entryDx=0;entryDy=0;" edge="1" parent="1" source="uxPIrme_p7fA9JZxPVPv-20" target="uxPIrme_p7fA9JZxPVPv-21">
          <mxGeometry width="50" height="50" relative="1" as="geometry">
            <mxPoint x="310" y="270" as="sourcePoint" />
            <mxPoint x="232" y="308" as="targetPoint" />
          </mxGeometry>
        </mxCell>
        <mxCell id="uxPIrme_p7fA9JZxPVPv-23" value="I" style="ellipse;whiteSpace=wrap;html=1;aspect=fixed;" vertex="1" parent="1">
          <mxGeometry x="380" y="300" width="30" height="30" as="geometry" />
        </mxCell>
        <mxCell id="uxPIrme_p7fA9JZxPVPv-24" value="" style="endArrow=classic;html=1;rounded=0;exitX=1;exitY=1;exitDx=0;exitDy=0;entryX=0;entryY=0;entryDx=0;entryDy=0;" edge="1" parent="1" source="uxPIrme_p7fA9JZxPVPv-20" target="uxPIrme_p7fA9JZxPVPv-23">
          <mxGeometry width="50" height="50" relative="1" as="geometry">
            <mxPoint x="370" y="262" as="sourcePoint" />
            <mxPoint x="468" y="300" as="targetPoint" />
          </mxGeometry>
        </mxCell>
        <mxCell id="uxPIrme_p7fA9JZxPVPv-25" value="C" style="ellipse;whiteSpace=wrap;html=1;aspect=fixed;" vertex="1" parent="1">
          <mxGeometry x="280" y="370" width="30" height="30" as="geometry" />
        </mxCell>
        <mxCell id="uxPIrme_p7fA9JZxPVPv-26" value="" style="endArrow=classic;html=1;rounded=0;entryX=0.334;entryY=0.072;entryDx=0;entryDy=0;exitX=1;exitY=1;exitDx=0;exitDy=0;entryPerimeter=0;" edge="1" parent="1" source="uxPIrme_p7fA9JZxPVPv-21" target="uxPIrme_p7fA9JZxPVPv-25">
          <mxGeometry width="50" height="50" relative="1" as="geometry">
            <mxPoint x="260" y="330" as="sourcePoint" />
            <mxPoint x="308" y="368" as="targetPoint" />
          </mxGeometry>
        </mxCell>
        <mxCell id="uxPIrme_p7fA9JZxPVPv-27" value="T" style="ellipse;whiteSpace=wrap;html=1;aspect=fixed;" vertex="1" parent="1">
          <mxGeometry x="330" y="370" width="30" height="30" as="geometry" />
        </mxCell>
        <mxCell id="uxPIrme_p7fA9JZxPVPv-30" value="" style="endArrow=classic;html=1;rounded=0;entryX=1;entryY=0;entryDx=0;entryDy=0;exitX=0;exitY=1;exitDx=0;exitDy=0;" edge="1" parent="1" source="uxPIrme_p7fA9JZxPVPv-23" target="uxPIrme_p7fA9JZxPVPv-27">
          <mxGeometry width="50" height="50" relative="1" as="geometry">
            <mxPoint x="343.5" y="330" as="sourcePoint" />
            <mxPoint x="366.5" y="376" as="targetPoint" />
          </mxGeometry>
        </mxCell>
        <mxCell id="uxPIrme_p7fA9JZxPVPv-33" value="H" style="ellipse;whiteSpace=wrap;html=1;aspect=fixed;" vertex="1" parent="1">
          <mxGeometry x="700" y="180" width="30" height="30" as="geometry" />
        </mxCell>
        <mxCell id="uxPIrme_p7fA9JZxPVPv-34" value="" style="endArrow=classic;html=1;rounded=0;exitX=1;exitY=1;exitDx=0;exitDy=0;entryX=0;entryY=0;entryDx=0;entryDy=0;" edge="1" parent="1" source="uxPIrme_p7fA9JZxPVPv-33" target="uxPIrme_p7fA9JZxPVPv-49">
          <mxGeometry width="50" height="50" relative="1" as="geometry">
            <mxPoint x="910.0000000000001" y="220" as="sourcePoint" />
            <mxPoint x="824.3933982822059" y="244.39339828220602" as="targetPoint" />
          </mxGeometry>
        </mxCell>
        <mxCell id="uxPIrme_p7fA9JZxPVPv-35" value="T" style="ellipse;whiteSpace=wrap;html=1;aspect=fixed;" vertex="1" parent="1">
          <mxGeometry x="570" y="240" width="30" height="30" as="geometry" />
        </mxCell>
        <mxCell id="uxPIrme_p7fA9JZxPVPv-36" value="" style="endArrow=classic;html=1;rounded=0;exitX=0;exitY=1;exitDx=0;exitDy=0;entryX=1;entryY=0;entryDx=0;entryDy=0;" edge="1" parent="1" source="uxPIrme_p7fA9JZxPVPv-33" target="uxPIrme_p7fA9JZxPVPv-35">
          <mxGeometry width="50" height="50" relative="1" as="geometry">
            <mxPoint x="760" y="230" as="sourcePoint" />
            <mxPoint x="607" y="288" as="targetPoint" />
          </mxGeometry>
        </mxCell>
        <mxCell id="uxPIrme_p7fA9JZxPVPv-37" value="N" style="ellipse;whiteSpace=wrap;html=1;aspect=fixed;" vertex="1" parent="1">
          <mxGeometry x="500" y="300" width="30" height="30" as="geometry" />
        </mxCell>
        <mxCell id="uxPIrme_p7fA9JZxPVPv-38" value="" style="endArrow=classic;html=1;rounded=0;exitX=0;exitY=1;exitDx=0;exitDy=0;entryX=1;entryY=0;entryDx=0;entryDy=0;" edge="1" parent="1" source="uxPIrme_p7fA9JZxPVPv-35" target="uxPIrme_p7fA9JZxPVPv-37">
          <mxGeometry width="50" height="50" relative="1" as="geometry">
            <mxPoint x="570" y="270" as="sourcePoint" />
            <mxPoint x="492" y="308" as="targetPoint" />
          </mxGeometry>
        </mxCell>
        <mxCell id="uxPIrme_p7fA9JZxPVPv-39" value="C" style="ellipse;whiteSpace=wrap;html=1;aspect=fixed;" vertex="1" parent="1">
          <mxGeometry x="640" y="300" width="30" height="30" as="geometry" />
        </mxCell>
        <mxCell id="uxPIrme_p7fA9JZxPVPv-40" value="" style="endArrow=classic;html=1;rounded=0;exitX=1;exitY=1;exitDx=0;exitDy=0;entryX=0;entryY=0;entryDx=0;entryDy=0;" edge="1" parent="1" source="uxPIrme_p7fA9JZxPVPv-35" target="uxPIrme_p7fA9JZxPVPv-39">
          <mxGeometry width="50" height="50" relative="1" as="geometry">
            <mxPoint x="630" y="262" as="sourcePoint" />
            <mxPoint x="728" y="300" as="targetPoint" />
          </mxGeometry>
        </mxCell>
        <mxCell id="uxPIrme_p7fA9JZxPVPv-41" value="_" style="ellipse;whiteSpace=wrap;html=1;aspect=fixed;" vertex="1" parent="1">
          <mxGeometry x="540" y="370" width="30" height="30" as="geometry" />
        </mxCell>
        <mxCell id="uxPIrme_p7fA9JZxPVPv-42" value="" style="endArrow=classic;html=1;rounded=0;entryX=0.334;entryY=0.072;entryDx=0;entryDy=0;exitX=1;exitY=1;exitDx=0;exitDy=0;entryPerimeter=0;" edge="1" parent="1" source="uxPIrme_p7fA9JZxPVPv-37" target="uxPIrme_p7fA9JZxPVPv-41">
          <mxGeometry width="50" height="50" relative="1" as="geometry">
            <mxPoint x="520" y="330" as="sourcePoint" />
            <mxPoint x="568" y="368" as="targetPoint" />
          </mxGeometry>
        </mxCell>
        <mxCell id="uxPIrme_p7fA9JZxPVPv-43" value="E" style="ellipse;whiteSpace=wrap;html=1;aspect=fixed;" vertex="1" parent="1">
          <mxGeometry x="590" y="370" width="30" height="30" as="geometry" />
        </mxCell>
        <mxCell id="uxPIrme_p7fA9JZxPVPv-46" value="" style="endArrow=classic;html=1;rounded=0;entryX=1;entryY=0;entryDx=0;entryDy=0;exitX=0;exitY=1;exitDx=0;exitDy=0;" edge="1" parent="1" source="uxPIrme_p7fA9JZxPVPv-39" target="uxPIrme_p7fA9JZxPVPv-43">
          <mxGeometry width="50" height="50" relative="1" as="geometry">
            <mxPoint x="603.5" y="330" as="sourcePoint" />
            <mxPoint x="626.5" y="376" as="targetPoint" />
          </mxGeometry>
        </mxCell>
        <mxCell id="uxPIrme_p7fA9JZxPVPv-49" value="L" style="ellipse;whiteSpace=wrap;html=1;aspect=fixed;" vertex="1" parent="1">
          <mxGeometry x="860" y="240" width="30" height="30" as="geometry" />
        </mxCell>
        <mxCell id="uxPIrme_p7fA9JZxPVPv-50" value="N" style="ellipse;whiteSpace=wrap;html=1;aspect=fixed;" vertex="1" parent="1">
          <mxGeometry x="790" y="300" width="30" height="30" as="geometry" />
        </mxCell>
        <mxCell id="uxPIrme_p7fA9JZxPVPv-51" value="" style="endArrow=classic;html=1;rounded=0;exitX=0;exitY=1;exitDx=0;exitDy=0;entryX=1;entryY=0;entryDx=0;entryDy=0;" edge="1" parent="1" source="uxPIrme_p7fA9JZxPVPv-49" target="uxPIrme_p7fA9JZxPVPv-50">
          <mxGeometry width="50" height="50" relative="1" as="geometry">
            <mxPoint x="860" y="270" as="sourcePoint" />
            <mxPoint x="782" y="308" as="targetPoint" />
          </mxGeometry>
        </mxCell>
        <mxCell id="uxPIrme_p7fA9JZxPVPv-52" value="G" style="ellipse;whiteSpace=wrap;html=1;aspect=fixed;" vertex="1" parent="1">
          <mxGeometry x="930" y="300" width="30" height="30" as="geometry" />
        </mxCell>
        <mxCell id="uxPIrme_p7fA9JZxPVPv-53" value="" style="endArrow=classic;html=1;rounded=0;exitX=1;exitY=1;exitDx=0;exitDy=0;entryX=0;entryY=0;entryDx=0;entryDy=0;" edge="1" parent="1" source="uxPIrme_p7fA9JZxPVPv-49" target="uxPIrme_p7fA9JZxPVPv-52">
          <mxGeometry width="50" height="50" relative="1" as="geometry">
            <mxPoint x="920" y="262" as="sourcePoint" />
            <mxPoint x="1018" y="300" as="targetPoint" />
          </mxGeometry>
        </mxCell>
        <mxCell id="uxPIrme_p7fA9JZxPVPv-54" value="O" style="ellipse;whiteSpace=wrap;html=1;aspect=fixed;" vertex="1" parent="1">
          <mxGeometry x="830" y="370" width="30" height="30" as="geometry" />
        </mxCell>
        <mxCell id="uxPIrme_p7fA9JZxPVPv-55" value="" style="endArrow=classic;html=1;rounded=0;entryX=0.334;entryY=0.072;entryDx=0;entryDy=0;exitX=1;exitY=1;exitDx=0;exitDy=0;entryPerimeter=0;" edge="1" parent="1" source="uxPIrme_p7fA9JZxPVPv-50" target="uxPIrme_p7fA9JZxPVPv-54">
          <mxGeometry width="50" height="50" relative="1" as="geometry">
            <mxPoint x="810" y="330" as="sourcePoint" />
            <mxPoint x="858" y="368" as="targetPoint" />
          </mxGeometry>
        </mxCell>
        <mxCell id="uxPIrme_p7fA9JZxPVPv-56" value="O" style="ellipse;whiteSpace=wrap;html=1;aspect=fixed;" vertex="1" parent="1">
          <mxGeometry x="880" y="370" width="30" height="30" as="geometry" />
        </mxCell>
        <mxCell id="uxPIrme_p7fA9JZxPVPv-57" value="Y" style="ellipse;whiteSpace=wrap;html=1;aspect=fixed;" vertex="1" parent="1">
          <mxGeometry x="970" y="370" width="30" height="30" as="geometry" />
        </mxCell>
        <mxCell id="uxPIrme_p7fA9JZxPVPv-58" value="" style="endArrow=classic;html=1;rounded=0;entryX=0.295;entryY=0.072;entryDx=0;entryDy=0;exitX=1;exitY=1;exitDx=0;exitDy=0;entryPerimeter=0;" edge="1" parent="1" source="uxPIrme_p7fA9JZxPVPv-52" target="uxPIrme_p7fA9JZxPVPv-57">
          <mxGeometry width="50" height="50" relative="1" as="geometry">
            <mxPoint x="958" y="330" as="sourcePoint" />
            <mxPoint x="980" y="376" as="targetPoint" />
          </mxGeometry>
        </mxCell>
        <mxCell id="uxPIrme_p7fA9JZxPVPv-59" value="" style="endArrow=classic;html=1;rounded=0;entryX=1;entryY=0;entryDx=0;entryDy=0;exitX=0;exitY=1;exitDx=0;exitDy=0;" edge="1" parent="1" source="uxPIrme_p7fA9JZxPVPv-52" target="uxPIrme_p7fA9JZxPVPv-56">
          <mxGeometry width="50" height="50" relative="1" as="geometry">
            <mxPoint x="893.5" y="330" as="sourcePoint" />
            <mxPoint x="916.5" y="376" as="targetPoint" />
          </mxGeometry>
        </mxCell>
      </root>
    </mxGraphModel>
  </diagram>
  <diagram id="VSfDI0-YYKsfuAfg9vGg" name="3">
    <mxGraphModel dx="2265" dy="580" grid="1" gridSize="10" guides="1" tooltips="1" connect="1" arrows="1" fold="1" page="1" pageScale="1" pageWidth="850" pageHeight="1100" math="0" shadow="0">
      <root>
        <mxCell id="0" />
        <mxCell id="1" parent="0" />
        <mxCell id="j4tc092U_c0UWQsM68yU-1" value="R" style="ellipse;whiteSpace=wrap;html=1;aspect=fixed;" vertex="1" parent="1">
          <mxGeometry x="450" y="90" width="30" height="30" as="geometry" />
        </mxCell>
        <mxCell id="j4tc092U_c0UWQsM68yU-2" value="" style="endArrow=classic;html=1;rounded=0;exitX=1;exitY=1;exitDx=0;exitDy=0;entryX=0;entryY=0;entryDx=0;entryDy=0;" edge="1" parent="1" source="j4tc092U_c0UWQsM68yU-1" target="j4tc092U_c0UWQsM68yU-33">
          <mxGeometry width="50" height="50" relative="1" as="geometry">
            <mxPoint x="409.0000000000001" y="157" as="sourcePoint" />
            <mxPoint x="654.3933982822136" y="184.39339828221387" as="targetPoint" />
          </mxGeometry>
        </mxCell>
        <mxCell id="j4tc092U_c0UWQsM68yU-3" value="" style="endArrow=classic;html=1;rounded=0;exitX=0;exitY=1;exitDx=0;exitDy=0;entryX=1;entryY=0;entryDx=0;entryDy=0;" edge="1" parent="1" source="j4tc092U_c0UWQsM68yU-1" target="j4tc092U_c0UWQsM68yU-4">
          <mxGeometry width="50" height="50" relative="1" as="geometry">
            <mxPoint x="393.0000000000001" y="157" as="sourcePoint" />
            <mxPoint x="358" y="197" as="targetPoint" />
          </mxGeometry>
        </mxCell>
        <mxCell id="j4tc092U_c0UWQsM68yU-4" value="P" style="ellipse;whiteSpace=wrap;html=1;aspect=fixed;" vertex="1" parent="1">
          <mxGeometry x="150" y="180" width="30" height="30" as="geometry" />
        </mxCell>
        <mxCell id="j4tc092U_c0UWQsM68yU-5" value="" style="endArrow=classic;html=1;rounded=0;exitX=1;exitY=1;exitDx=0;exitDy=0;entryX=0;entryY=0;entryDx=0;entryDy=0;" edge="1" parent="1" source="j4tc092U_c0UWQsM68yU-4" target="j4tc092U_c0UWQsM68yU-20">
          <mxGeometry width="50" height="50" relative="1" as="geometry">
            <mxPoint x="360.0000000000001" y="220" as="sourcePoint" />
            <mxPoint x="274.3933982822059" y="244.39339828220602" as="targetPoint" />
          </mxGeometry>
        </mxCell>
        <mxCell id="j4tc092U_c0UWQsM68yU-6" value="O" style="ellipse;whiteSpace=wrap;html=1;aspect=fixed;" vertex="1" parent="1">
          <mxGeometry x="20" y="240" width="30" height="30" as="geometry" />
        </mxCell>
        <mxCell id="j4tc092U_c0UWQsM68yU-7" value="" style="endArrow=classic;html=1;rounded=0;exitX=0;exitY=1;exitDx=0;exitDy=0;entryX=1;entryY=0;entryDx=0;entryDy=0;" edge="1" parent="1" source="j4tc092U_c0UWQsM68yU-4" target="j4tc092U_c0UWQsM68yU-6">
          <mxGeometry width="50" height="50" relative="1" as="geometry">
            <mxPoint x="210" y="230" as="sourcePoint" />
            <mxPoint x="57" y="288" as="targetPoint" />
          </mxGeometry>
        </mxCell>
        <mxCell id="j4tc092U_c0UWQsM68yU-8" value="C" style="ellipse;whiteSpace=wrap;html=1;aspect=fixed;" vertex="1" parent="1">
          <mxGeometry x="-50" y="300" width="30" height="30" as="geometry" />
        </mxCell>
        <mxCell id="j4tc092U_c0UWQsM68yU-9" value="" style="endArrow=classic;html=1;rounded=0;exitX=0;exitY=1;exitDx=0;exitDy=0;entryX=1;entryY=0;entryDx=0;entryDy=0;" edge="1" parent="1" source="j4tc092U_c0UWQsM68yU-6" target="j4tc092U_c0UWQsM68yU-8">
          <mxGeometry width="50" height="50" relative="1" as="geometry">
            <mxPoint x="20" y="270" as="sourcePoint" />
            <mxPoint x="-58" y="308" as="targetPoint" />
          </mxGeometry>
        </mxCell>
        <mxCell id="j4tc092U_c0UWQsM68yU-10" value="M" style="ellipse;whiteSpace=wrap;html=1;aspect=fixed;" vertex="1" parent="1">
          <mxGeometry x="90" y="300" width="30" height="30" as="geometry" />
        </mxCell>
        <mxCell id="j4tc092U_c0UWQsM68yU-11" value="" style="endArrow=classic;html=1;rounded=0;exitX=1;exitY=1;exitDx=0;exitDy=0;entryX=0;entryY=0;entryDx=0;entryDy=0;" edge="1" parent="1" source="j4tc092U_c0UWQsM68yU-6" target="j4tc092U_c0UWQsM68yU-10">
          <mxGeometry width="50" height="50" relative="1" as="geometry">
            <mxPoint x="80" y="262" as="sourcePoint" />
            <mxPoint x="178" y="300" as="targetPoint" />
          </mxGeometry>
        </mxCell>
        <mxCell id="j4tc092U_c0UWQsM68yU-20" value="R" style="ellipse;whiteSpace=wrap;html=1;aspect=fixed;" vertex="1" parent="1">
          <mxGeometry x="310" y="240" width="30" height="30" as="geometry" />
        </mxCell>
        <mxCell id="j4tc092U_c0UWQsM68yU-21" value="U" style="ellipse;whiteSpace=wrap;html=1;aspect=fixed;" vertex="1" parent="1">
          <mxGeometry x="240" y="300" width="30" height="30" as="geometry" />
        </mxCell>
        <mxCell id="j4tc092U_c0UWQsM68yU-22" value="" style="endArrow=classic;html=1;rounded=0;exitX=0;exitY=1;exitDx=0;exitDy=0;entryX=1;entryY=0;entryDx=0;entryDy=0;" edge="1" parent="1" source="j4tc092U_c0UWQsM68yU-20" target="j4tc092U_c0UWQsM68yU-21">
          <mxGeometry width="50" height="50" relative="1" as="geometry">
            <mxPoint x="310" y="270" as="sourcePoint" />
            <mxPoint x="232" y="308" as="targetPoint" />
          </mxGeometry>
        </mxCell>
        <mxCell id="j4tc092U_c0UWQsM68yU-23" value="E" style="ellipse;whiteSpace=wrap;html=1;aspect=fixed;" vertex="1" parent="1">
          <mxGeometry x="380" y="300" width="30" height="30" as="geometry" />
        </mxCell>
        <mxCell id="j4tc092U_c0UWQsM68yU-24" value="" style="endArrow=classic;html=1;rounded=0;exitX=1;exitY=1;exitDx=0;exitDy=0;entryX=0;entryY=0;entryDx=0;entryDy=0;" edge="1" parent="1" source="j4tc092U_c0UWQsM68yU-20" target="j4tc092U_c0UWQsM68yU-23">
          <mxGeometry width="50" height="50" relative="1" as="geometry">
            <mxPoint x="370" y="262" as="sourcePoint" />
            <mxPoint x="468" y="300" as="targetPoint" />
          </mxGeometry>
        </mxCell>
        <mxCell id="j4tc092U_c0UWQsM68yU-33" value="I" style="ellipse;whiteSpace=wrap;html=1;aspect=fixed;" vertex="1" parent="1">
          <mxGeometry x="700" y="180" width="30" height="30" as="geometry" />
        </mxCell>
        <mxCell id="j4tc092U_c0UWQsM68yU-34" value="" style="endArrow=classic;html=1;rounded=0;exitX=1;exitY=1;exitDx=0;exitDy=0;entryX=0;entryY=0;entryDx=0;entryDy=0;" edge="1" parent="1" source="j4tc092U_c0UWQsM68yU-33" target="j4tc092U_c0UWQsM68yU-49">
          <mxGeometry width="50" height="50" relative="1" as="geometry">
            <mxPoint x="910.0000000000001" y="220" as="sourcePoint" />
            <mxPoint x="824.3933982822059" y="244.39339828220602" as="targetPoint" />
          </mxGeometry>
        </mxCell>
        <mxCell id="j4tc092U_c0UWQsM68yU-35" value="S" style="ellipse;whiteSpace=wrap;html=1;aspect=fixed;" vertex="1" parent="1">
          <mxGeometry x="570" y="240" width="30" height="30" as="geometry" />
        </mxCell>
        <mxCell id="j4tc092U_c0UWQsM68yU-36" value="" style="endArrow=classic;html=1;rounded=0;exitX=0;exitY=1;exitDx=0;exitDy=0;entryX=1;entryY=0;entryDx=0;entryDy=0;" edge="1" parent="1" source="j4tc092U_c0UWQsM68yU-33" target="j4tc092U_c0UWQsM68yU-35">
          <mxGeometry width="50" height="50" relative="1" as="geometry">
            <mxPoint x="760" y="230" as="sourcePoint" />
            <mxPoint x="607" y="288" as="targetPoint" />
          </mxGeometry>
        </mxCell>
        <mxCell id="j4tc092U_c0UWQsM68yU-37" value="_" style="ellipse;whiteSpace=wrap;html=1;aspect=fixed;" vertex="1" parent="1">
          <mxGeometry x="500" y="300" width="30" height="30" as="geometry" />
        </mxCell>
        <mxCell id="j4tc092U_c0UWQsM68yU-38" value="" style="endArrow=classic;html=1;rounded=0;exitX=0;exitY=1;exitDx=0;exitDy=0;entryX=1;entryY=0;entryDx=0;entryDy=0;" edge="1" parent="1" source="j4tc092U_c0UWQsM68yU-35" target="j4tc092U_c0UWQsM68yU-37">
          <mxGeometry width="50" height="50" relative="1" as="geometry">
            <mxPoint x="570" y="270" as="sourcePoint" />
            <mxPoint x="492" y="308" as="targetPoint" />
          </mxGeometry>
        </mxCell>
        <mxCell id="j4tc092U_c0UWQsM68yU-39" value="C" style="ellipse;whiteSpace=wrap;html=1;aspect=fixed;" vertex="1" parent="1">
          <mxGeometry x="640" y="300" width="30" height="30" as="geometry" />
        </mxCell>
        <mxCell id="j4tc092U_c0UWQsM68yU-40" value="" style="endArrow=classic;html=1;rounded=0;exitX=1;exitY=1;exitDx=0;exitDy=0;entryX=0;entryY=0;entryDx=0;entryDy=0;" edge="1" parent="1" source="j4tc092U_c0UWQsM68yU-35" target="j4tc092U_c0UWQsM68yU-39">
          <mxGeometry width="50" height="50" relative="1" as="geometry">
            <mxPoint x="630" y="262" as="sourcePoint" />
            <mxPoint x="728" y="300" as="targetPoint" />
          </mxGeometry>
        </mxCell>
        <mxCell id="j4tc092U_c0UWQsM68yU-49" value="N" style="ellipse;whiteSpace=wrap;html=1;aspect=fixed;" vertex="1" parent="1">
          <mxGeometry x="860" y="240" width="30" height="30" as="geometry" />
        </mxCell>
        <mxCell id="j4tc092U_c0UWQsM68yU-50" value="E" style="ellipse;whiteSpace=wrap;html=1;aspect=fixed;" vertex="1" parent="1">
          <mxGeometry x="790" y="300" width="30" height="30" as="geometry" />
        </mxCell>
        <mxCell id="j4tc092U_c0UWQsM68yU-51" value="" style="endArrow=classic;html=1;rounded=0;exitX=0;exitY=1;exitDx=0;exitDy=0;entryX=1;entryY=0;entryDx=0;entryDy=0;" edge="1" parent="1" source="j4tc092U_c0UWQsM68yU-49" target="j4tc092U_c0UWQsM68yU-50">
          <mxGeometry width="50" height="50" relative="1" as="geometry">
            <mxPoint x="860" y="270" as="sourcePoint" />
            <mxPoint x="782" y="308" as="targetPoint" />
          </mxGeometry>
        </mxCell>
        <mxCell id="j4tc092U_c0UWQsM68yU-52" value="C" style="ellipse;whiteSpace=wrap;html=1;aspect=fixed;" vertex="1" parent="1">
          <mxGeometry x="930" y="300" width="30" height="30" as="geometry" />
        </mxCell>
        <mxCell id="j4tc092U_c0UWQsM68yU-53" value="" style="endArrow=classic;html=1;rounded=0;exitX=1;exitY=1;exitDx=0;exitDy=0;entryX=0;entryY=0;entryDx=0;entryDy=0;" edge="1" parent="1" source="j4tc092U_c0UWQsM68yU-49" target="j4tc092U_c0UWQsM68yU-52">
          <mxGeometry width="50" height="50" relative="1" as="geometry">
            <mxPoint x="920" y="262" as="sourcePoint" />
            <mxPoint x="1018" y="300" as="targetPoint" />
          </mxGeometry>
        </mxCell>
        <mxCell id="j4tc092U_c0UWQsM68yU-57" value="E" style="ellipse;whiteSpace=wrap;html=1;aspect=fixed;" vertex="1" parent="1">
          <mxGeometry x="970" y="370" width="30" height="30" as="geometry" />
        </mxCell>
        <mxCell id="j4tc092U_c0UWQsM68yU-58" value="" style="endArrow=classic;html=1;rounded=0;entryX=0.295;entryY=0.072;entryDx=0;entryDy=0;exitX=1;exitY=1;exitDx=0;exitDy=0;entryPerimeter=0;" edge="1" parent="1" source="j4tc092U_c0UWQsM68yU-52" target="j4tc092U_c0UWQsM68yU-57">
          <mxGeometry width="50" height="50" relative="1" as="geometry">
            <mxPoint x="958" y="330" as="sourcePoint" />
            <mxPoint x="980" y="376" as="targetPoint" />
          </mxGeometry>
        </mxCell>
      </root>
    </mxGraphModel>
  </diagram>
  <diagram id="D635i-_JG2aEIHdyz7_j" name="4">
    <mxGraphModel dx="2515" dy="682" grid="1" gridSize="10" guides="1" tooltips="1" connect="1" arrows="1" fold="1" page="1" pageScale="1" pageWidth="850" pageHeight="1100" math="0" shadow="0">
      <root>
        <mxCell id="0" />
        <mxCell id="1" parent="0" />
        <mxCell id="-zlVKrAbUiUq8UQlpOUX-1" value="N" style="ellipse;whiteSpace=wrap;html=1;aspect=fixed;" vertex="1" parent="1">
          <mxGeometry x="450" y="90" width="30" height="30" as="geometry" />
        </mxCell>
        <mxCell id="-zlVKrAbUiUq8UQlpOUX-2" value="" style="endArrow=classic;html=1;rounded=0;exitX=1;exitY=1;exitDx=0;exitDy=0;entryX=0;entryY=0;entryDx=0;entryDy=0;" edge="1" parent="1" source="-zlVKrAbUiUq8UQlpOUX-1" target="-zlVKrAbUiUq8UQlpOUX-33">
          <mxGeometry width="50" height="50" relative="1" as="geometry">
            <mxPoint x="409.0000000000001" y="157" as="sourcePoint" />
            <mxPoint x="654.3933982822136" y="184.39339828221387" as="targetPoint" />
          </mxGeometry>
        </mxCell>
        <mxCell id="-zlVKrAbUiUq8UQlpOUX-3" value="" style="endArrow=classic;html=1;rounded=0;exitX=0;exitY=1;exitDx=0;exitDy=0;entryX=1;entryY=0;entryDx=0;entryDy=0;" edge="1" parent="1" source="-zlVKrAbUiUq8UQlpOUX-1" target="-zlVKrAbUiUq8UQlpOUX-4">
          <mxGeometry width="50" height="50" relative="1" as="geometry">
            <mxPoint x="393.0000000000001" y="157" as="sourcePoint" />
            <mxPoint x="358" y="197" as="targetPoint" />
          </mxGeometry>
        </mxCell>
        <mxCell id="-zlVKrAbUiUq8UQlpOUX-4" value="R" style="ellipse;whiteSpace=wrap;html=1;aspect=fixed;" vertex="1" parent="1">
          <mxGeometry x="150" y="180" width="30" height="30" as="geometry" />
        </mxCell>
        <mxCell id="-zlVKrAbUiUq8UQlpOUX-5" value="" style="endArrow=classic;html=1;rounded=0;exitX=1;exitY=1;exitDx=0;exitDy=0;entryX=0;entryY=0;entryDx=0;entryDy=0;" edge="1" parent="1" source="-zlVKrAbUiUq8UQlpOUX-4" target="-zlVKrAbUiUq8UQlpOUX-20">
          <mxGeometry width="50" height="50" relative="1" as="geometry">
            <mxPoint x="360.0000000000001" y="220" as="sourcePoint" />
            <mxPoint x="274.3933982822059" y="244.39339828220602" as="targetPoint" />
          </mxGeometry>
        </mxCell>
        <mxCell id="-zlVKrAbUiUq8UQlpOUX-6" value="N" style="ellipse;whiteSpace=wrap;html=1;aspect=fixed;" vertex="1" parent="1">
          <mxGeometry x="20" y="240" width="30" height="30" as="geometry" />
        </mxCell>
        <mxCell id="-zlVKrAbUiUq8UQlpOUX-7" value="" style="endArrow=classic;html=1;rounded=0;exitX=0;exitY=1;exitDx=0;exitDy=0;entryX=1;entryY=0;entryDx=0;entryDy=0;" edge="1" parent="1" source="-zlVKrAbUiUq8UQlpOUX-4" target="-zlVKrAbUiUq8UQlpOUX-6">
          <mxGeometry width="50" height="50" relative="1" as="geometry">
            <mxPoint x="210" y="230" as="sourcePoint" />
            <mxPoint x="57" y="288" as="targetPoint" />
          </mxGeometry>
        </mxCell>
        <mxCell id="-zlVKrAbUiUq8UQlpOUX-8" value="I" style="ellipse;whiteSpace=wrap;html=1;aspect=fixed;" vertex="1" parent="1">
          <mxGeometry x="-50" y="300" width="30" height="30" as="geometry" />
        </mxCell>
        <mxCell id="-zlVKrAbUiUq8UQlpOUX-9" value="" style="endArrow=classic;html=1;rounded=0;exitX=0;exitY=1;exitDx=0;exitDy=0;entryX=1;entryY=0;entryDx=0;entryDy=0;" edge="1" parent="1" source="-zlVKrAbUiUq8UQlpOUX-6" target="-zlVKrAbUiUq8UQlpOUX-8">
          <mxGeometry width="50" height="50" relative="1" as="geometry">
            <mxPoint x="20" y="270" as="sourcePoint" />
            <mxPoint x="-58" y="308" as="targetPoint" />
          </mxGeometry>
        </mxCell>
        <mxCell id="-zlVKrAbUiUq8UQlpOUX-10" value="O" style="ellipse;whiteSpace=wrap;html=1;aspect=fixed;" vertex="1" parent="1">
          <mxGeometry x="90" y="300" width="30" height="30" as="geometry" />
        </mxCell>
        <mxCell id="-zlVKrAbUiUq8UQlpOUX-11" value="" style="endArrow=classic;html=1;rounded=0;exitX=1;exitY=1;exitDx=0;exitDy=0;entryX=0;entryY=0;entryDx=0;entryDy=0;" edge="1" parent="1" source="-zlVKrAbUiUq8UQlpOUX-6" target="-zlVKrAbUiUq8UQlpOUX-10">
          <mxGeometry width="50" height="50" relative="1" as="geometry">
            <mxPoint x="80" y="262" as="sourcePoint" />
            <mxPoint x="178" y="300" as="targetPoint" />
          </mxGeometry>
        </mxCell>
        <mxCell id="-zlVKrAbUiUq8UQlpOUX-14" value="F" style="ellipse;whiteSpace=wrap;html=1;aspect=fixed;" vertex="1" parent="1">
          <mxGeometry x="40" y="370" width="30" height="30" as="geometry" />
        </mxCell>
        <mxCell id="-zlVKrAbUiUq8UQlpOUX-17" value="" style="endArrow=classic;html=1;rounded=0;entryX=1;entryY=0;entryDx=0;entryDy=0;exitX=0;exitY=1;exitDx=0;exitDy=0;" edge="1" parent="1" source="-zlVKrAbUiUq8UQlpOUX-10" target="-zlVKrAbUiUq8UQlpOUX-14">
          <mxGeometry width="50" height="50" relative="1" as="geometry">
            <mxPoint x="53.5" y="330" as="sourcePoint" />
            <mxPoint x="76.5" y="376" as="targetPoint" />
          </mxGeometry>
        </mxCell>
        <mxCell id="-zlVKrAbUiUq8UQlpOUX-20" value="T" style="ellipse;whiteSpace=wrap;html=1;aspect=fixed;" vertex="1" parent="1">
          <mxGeometry x="310" y="240" width="30" height="30" as="geometry" />
        </mxCell>
        <mxCell id="-zlVKrAbUiUq8UQlpOUX-21" value="M" style="ellipse;whiteSpace=wrap;html=1;aspect=fixed;" vertex="1" parent="1">
          <mxGeometry x="240" y="300" width="30" height="30" as="geometry" />
        </mxCell>
        <mxCell id="-zlVKrAbUiUq8UQlpOUX-22" value="" style="endArrow=classic;html=1;rounded=0;exitX=0;exitY=1;exitDx=0;exitDy=0;entryX=1;entryY=0;entryDx=0;entryDy=0;" edge="1" parent="1" source="-zlVKrAbUiUq8UQlpOUX-20" target="-zlVKrAbUiUq8UQlpOUX-21">
          <mxGeometry width="50" height="50" relative="1" as="geometry">
            <mxPoint x="310" y="270" as="sourcePoint" />
            <mxPoint x="232" y="308" as="targetPoint" />
          </mxGeometry>
        </mxCell>
        <mxCell id="-zlVKrAbUiUq8UQlpOUX-23" value="O" style="ellipse;whiteSpace=wrap;html=1;aspect=fixed;" vertex="1" parent="1">
          <mxGeometry x="380" y="300" width="30" height="30" as="geometry" />
        </mxCell>
        <mxCell id="-zlVKrAbUiUq8UQlpOUX-24" value="" style="endArrow=classic;html=1;rounded=0;exitX=1;exitY=1;exitDx=0;exitDy=0;entryX=0;entryY=0;entryDx=0;entryDy=0;" edge="1" parent="1" source="-zlVKrAbUiUq8UQlpOUX-20" target="-zlVKrAbUiUq8UQlpOUX-23">
          <mxGeometry width="50" height="50" relative="1" as="geometry">
            <mxPoint x="370" y="262" as="sourcePoint" />
            <mxPoint x="468" y="300" as="targetPoint" />
          </mxGeometry>
        </mxCell>
        <mxCell id="-zlVKrAbUiUq8UQlpOUX-25" value="A" style="ellipse;whiteSpace=wrap;html=1;aspect=fixed;" vertex="1" parent="1">
          <mxGeometry x="280" y="370" width="30" height="30" as="geometry" />
        </mxCell>
        <mxCell id="-zlVKrAbUiUq8UQlpOUX-26" value="" style="endArrow=classic;html=1;rounded=0;entryX=0.334;entryY=0.072;entryDx=0;entryDy=0;exitX=1;exitY=1;exitDx=0;exitDy=0;entryPerimeter=0;" edge="1" parent="1" source="-zlVKrAbUiUq8UQlpOUX-21" target="-zlVKrAbUiUq8UQlpOUX-25">
          <mxGeometry width="50" height="50" relative="1" as="geometry">
            <mxPoint x="260" y="330" as="sourcePoint" />
            <mxPoint x="308" y="368" as="targetPoint" />
          </mxGeometry>
        </mxCell>
        <mxCell id="-zlVKrAbUiUq8UQlpOUX-27" value="I" style="ellipse;whiteSpace=wrap;html=1;aspect=fixed;" vertex="1" parent="1">
          <mxGeometry x="330" y="370" width="30" height="30" as="geometry" />
        </mxCell>
        <mxCell id="-zlVKrAbUiUq8UQlpOUX-30" value="" style="endArrow=classic;html=1;rounded=0;entryX=1;entryY=0;entryDx=0;entryDy=0;exitX=0;exitY=1;exitDx=0;exitDy=0;" edge="1" parent="1" source="-zlVKrAbUiUq8UQlpOUX-23" target="-zlVKrAbUiUq8UQlpOUX-27">
          <mxGeometry width="50" height="50" relative="1" as="geometry">
            <mxPoint x="343.5" y="330" as="sourcePoint" />
            <mxPoint x="366.5" y="376" as="targetPoint" />
          </mxGeometry>
        </mxCell>
        <mxCell id="-zlVKrAbUiUq8UQlpOUX-33" value="N" style="ellipse;whiteSpace=wrap;html=1;aspect=fixed;" vertex="1" parent="1">
          <mxGeometry x="700" y="180" width="30" height="30" as="geometry" />
        </mxCell>
        <mxCell id="-zlVKrAbUiUq8UQlpOUX-34" value="" style="endArrow=classic;html=1;rounded=0;exitX=1;exitY=1;exitDx=0;exitDy=0;entryX=0;entryY=0;entryDx=0;entryDy=0;" edge="1" parent="1" source="-zlVKrAbUiUq8UQlpOUX-33" target="-zlVKrAbUiUq8UQlpOUX-49">
          <mxGeometry width="50" height="50" relative="1" as="geometry">
            <mxPoint x="910.0000000000001" y="220" as="sourcePoint" />
            <mxPoint x="824.3933982822059" y="244.39339828220602" as="targetPoint" />
          </mxGeometry>
        </mxCell>
        <mxCell id="-zlVKrAbUiUq8UQlpOUX-35" value="E" style="ellipse;whiteSpace=wrap;html=1;aspect=fixed;" vertex="1" parent="1">
          <mxGeometry x="570" y="240" width="30" height="30" as="geometry" />
        </mxCell>
        <mxCell id="-zlVKrAbUiUq8UQlpOUX-36" value="" style="endArrow=classic;html=1;rounded=0;exitX=0;exitY=1;exitDx=0;exitDy=0;entryX=1;entryY=0;entryDx=0;entryDy=0;" edge="1" parent="1" source="-zlVKrAbUiUq8UQlpOUX-33" target="-zlVKrAbUiUq8UQlpOUX-35">
          <mxGeometry width="50" height="50" relative="1" as="geometry">
            <mxPoint x="760" y="230" as="sourcePoint" />
            <mxPoint x="607" y="288" as="targetPoint" />
          </mxGeometry>
        </mxCell>
        <mxCell id="-zlVKrAbUiUq8UQlpOUX-37" value="_" style="ellipse;whiteSpace=wrap;html=1;aspect=fixed;" vertex="1" parent="1">
          <mxGeometry x="500" y="300" width="30" height="30" as="geometry" />
        </mxCell>
        <mxCell id="-zlVKrAbUiUq8UQlpOUX-38" value="" style="endArrow=classic;html=1;rounded=0;exitX=0;exitY=1;exitDx=0;exitDy=0;entryX=1;entryY=0;entryDx=0;entryDy=0;" edge="1" parent="1" source="-zlVKrAbUiUq8UQlpOUX-35" target="-zlVKrAbUiUq8UQlpOUX-37">
          <mxGeometry width="50" height="50" relative="1" as="geometry">
            <mxPoint x="570" y="270" as="sourcePoint" />
            <mxPoint x="492" y="308" as="targetPoint" />
          </mxGeometry>
        </mxCell>
        <mxCell id="-zlVKrAbUiUq8UQlpOUX-39" value="H" style="ellipse;whiteSpace=wrap;html=1;aspect=fixed;" vertex="1" parent="1">
          <mxGeometry x="640" y="300" width="30" height="30" as="geometry" />
        </mxCell>
        <mxCell id="-zlVKrAbUiUq8UQlpOUX-40" value="" style="endArrow=classic;html=1;rounded=0;exitX=1;exitY=1;exitDx=0;exitDy=0;entryX=0;entryY=0;entryDx=0;entryDy=0;" edge="1" parent="1" source="-zlVKrAbUiUq8UQlpOUX-35" target="-zlVKrAbUiUq8UQlpOUX-39">
          <mxGeometry width="50" height="50" relative="1" as="geometry">
            <mxPoint x="630" y="262" as="sourcePoint" />
            <mxPoint x="728" y="300" as="targetPoint" />
          </mxGeometry>
        </mxCell>
        <mxCell id="-zlVKrAbUiUq8UQlpOUX-41" value="T" style="ellipse;whiteSpace=wrap;html=1;aspect=fixed;" vertex="1" parent="1">
          <mxGeometry x="540" y="370" width="30" height="30" as="geometry" />
        </mxCell>
        <mxCell id="-zlVKrAbUiUq8UQlpOUX-42" value="" style="endArrow=classic;html=1;rounded=0;entryX=0.334;entryY=0.072;entryDx=0;entryDy=0;exitX=1;exitY=1;exitDx=0;exitDy=0;entryPerimeter=0;" edge="1" parent="1" source="-zlVKrAbUiUq8UQlpOUX-37" target="-zlVKrAbUiUq8UQlpOUX-41">
          <mxGeometry width="50" height="50" relative="1" as="geometry">
            <mxPoint x="520" y="330" as="sourcePoint" />
            <mxPoint x="568" y="368" as="targetPoint" />
          </mxGeometry>
        </mxCell>
        <mxCell id="-zlVKrAbUiUq8UQlpOUX-43" value="C" style="ellipse;whiteSpace=wrap;html=1;aspect=fixed;" vertex="1" parent="1">
          <mxGeometry x="590" y="370" width="30" height="30" as="geometry" />
        </mxCell>
        <mxCell id="-zlVKrAbUiUq8UQlpOUX-46" value="" style="endArrow=classic;html=1;rounded=0;entryX=1;entryY=0;entryDx=0;entryDy=0;exitX=0;exitY=1;exitDx=0;exitDy=0;" edge="1" parent="1" source="-zlVKrAbUiUq8UQlpOUX-39" target="-zlVKrAbUiUq8UQlpOUX-43">
          <mxGeometry width="50" height="50" relative="1" as="geometry">
            <mxPoint x="603.5" y="330" as="sourcePoint" />
            <mxPoint x="626.5" y="376" as="targetPoint" />
          </mxGeometry>
        </mxCell>
        <mxCell id="-zlVKrAbUiUq8UQlpOUX-49" value="O" style="ellipse;whiteSpace=wrap;html=1;aspect=fixed;" vertex="1" parent="1">
          <mxGeometry x="860" y="240" width="30" height="30" as="geometry" />
        </mxCell>
        <mxCell id="-zlVKrAbUiUq8UQlpOUX-50" value="O" style="ellipse;whiteSpace=wrap;html=1;aspect=fixed;" vertex="1" parent="1">
          <mxGeometry x="790" y="300" width="30" height="30" as="geometry" />
        </mxCell>
        <mxCell id="-zlVKrAbUiUq8UQlpOUX-51" value="" style="endArrow=classic;html=1;rounded=0;exitX=0;exitY=1;exitDx=0;exitDy=0;entryX=1;entryY=0;entryDx=0;entryDy=0;" edge="1" parent="1" source="-zlVKrAbUiUq8UQlpOUX-49" target="-zlVKrAbUiUq8UQlpOUX-50">
          <mxGeometry width="50" height="50" relative="1" as="geometry">
            <mxPoint x="860" y="270" as="sourcePoint" />
            <mxPoint x="782" y="308" as="targetPoint" />
          </mxGeometry>
        </mxCell>
        <mxCell id="-zlVKrAbUiUq8UQlpOUX-52" value="Y" style="ellipse;whiteSpace=wrap;html=1;aspect=fixed;" vertex="1" parent="1">
          <mxGeometry x="930" y="300" width="30" height="30" as="geometry" />
        </mxCell>
        <mxCell id="-zlVKrAbUiUq8UQlpOUX-53" value="" style="endArrow=classic;html=1;rounded=0;exitX=1;exitY=1;exitDx=0;exitDy=0;entryX=0;entryY=0;entryDx=0;entryDy=0;" edge="1" parent="1" source="-zlVKrAbUiUq8UQlpOUX-49" target="-zlVKrAbUiUq8UQlpOUX-52">
          <mxGeometry width="50" height="50" relative="1" as="geometry">
            <mxPoint x="920" y="262" as="sourcePoint" />
            <mxPoint x="1018" y="300" as="targetPoint" />
          </mxGeometry>
        </mxCell>
        <mxCell id="-zlVKrAbUiUq8UQlpOUX-54" value="L" style="ellipse;whiteSpace=wrap;html=1;aspect=fixed;" vertex="1" parent="1">
          <mxGeometry x="830" y="370" width="30" height="30" as="geometry" />
        </mxCell>
        <mxCell id="-zlVKrAbUiUq8UQlpOUX-55" value="" style="endArrow=classic;html=1;rounded=0;entryX=0.334;entryY=0.072;entryDx=0;entryDy=0;exitX=1;exitY=1;exitDx=0;exitDy=0;entryPerimeter=0;" edge="1" parent="1" source="-zlVKrAbUiUq8UQlpOUX-50" target="-zlVKrAbUiUq8UQlpOUX-54">
          <mxGeometry width="50" height="50" relative="1" as="geometry">
            <mxPoint x="810" y="330" as="sourcePoint" />
            <mxPoint x="858" y="368" as="targetPoint" />
          </mxGeometry>
        </mxCell>
        <mxCell id="-zlVKrAbUiUq8UQlpOUX-56" value="G" style="ellipse;whiteSpace=wrap;html=1;aspect=fixed;" vertex="1" parent="1">
          <mxGeometry x="880" y="370" width="30" height="30" as="geometry" />
        </mxCell>
        <mxCell id="-zlVKrAbUiUq8UQlpOUX-59" value="" style="endArrow=classic;html=1;rounded=0;entryX=1;entryY=0;entryDx=0;entryDy=0;exitX=0;exitY=1;exitDx=0;exitDy=0;" edge="1" parent="1" source="-zlVKrAbUiUq8UQlpOUX-52" target="-zlVKrAbUiUq8UQlpOUX-56">
          <mxGeometry width="50" height="50" relative="1" as="geometry">
            <mxPoint x="893.5" y="330" as="sourcePoint" />
            <mxPoint x="916.5" y="376" as="targetPoint" />
          </mxGeometry>
        </mxCell>
      </root>
    </mxGraphModel>
  </diagram>
  <diagram id="Sek9_4whzI5LoI4sS23w" name="5">
    <mxGraphModel dx="2029" dy="483" grid="1" gridSize="10" guides="1" tooltips="1" connect="1" arrows="1" fold="1" page="1" pageScale="1" pageWidth="850" pageHeight="1100" math="0" shadow="0">
      <root>
        <mxCell id="0" />
        <mxCell id="1" parent="0" />
        <mxCell id="78Ulww8GTOkkOSmPsYwS-1" value="C" style="ellipse;whiteSpace=wrap;html=1;aspect=fixed;" vertex="1" parent="1">
          <mxGeometry x="450" y="90" width="30" height="30" as="geometry" />
        </mxCell>
        <mxCell id="78Ulww8GTOkkOSmPsYwS-2" value="" style="endArrow=classic;html=1;rounded=0;exitX=1;exitY=1;exitDx=0;exitDy=0;entryX=0;entryY=0;entryDx=0;entryDy=0;" edge="1" parent="1" source="78Ulww8GTOkkOSmPsYwS-1" target="78Ulww8GTOkkOSmPsYwS-33">
          <mxGeometry width="50" height="50" relative="1" as="geometry">
            <mxPoint x="409.0000000000001" y="157" as="sourcePoint" />
            <mxPoint x="654.3933982822136" y="184.39339828221387" as="targetPoint" />
          </mxGeometry>
        </mxCell>
        <mxCell id="78Ulww8GTOkkOSmPsYwS-3" value="" style="endArrow=classic;html=1;rounded=0;exitX=0;exitY=1;exitDx=0;exitDy=0;entryX=1;entryY=0;entryDx=0;entryDy=0;" edge="1" parent="1" source="78Ulww8GTOkkOSmPsYwS-1" target="78Ulww8GTOkkOSmPsYwS-4">
          <mxGeometry width="50" height="50" relative="1" as="geometry">
            <mxPoint x="393.0000000000001" y="157" as="sourcePoint" />
            <mxPoint x="358" y="197" as="targetPoint" />
          </mxGeometry>
        </mxCell>
        <mxCell id="78Ulww8GTOkkOSmPsYwS-4" value="T" style="ellipse;whiteSpace=wrap;html=1;aspect=fixed;" vertex="1" parent="1">
          <mxGeometry x="150" y="180" width="30" height="30" as="geometry" />
        </mxCell>
        <mxCell id="78Ulww8GTOkkOSmPsYwS-5" value="" style="endArrow=classic;html=1;rounded=0;exitX=1;exitY=1;exitDx=0;exitDy=0;entryX=0;entryY=0;entryDx=0;entryDy=0;" edge="1" parent="1" source="78Ulww8GTOkkOSmPsYwS-4" target="78Ulww8GTOkkOSmPsYwS-20">
          <mxGeometry width="50" height="50" relative="1" as="geometry">
            <mxPoint x="360.0000000000001" y="220" as="sourcePoint" />
            <mxPoint x="274.3933982822059" y="244.39339828220602" as="targetPoint" />
          </mxGeometry>
        </mxCell>
        <mxCell id="78Ulww8GTOkkOSmPsYwS-6" value="O" style="ellipse;whiteSpace=wrap;html=1;aspect=fixed;" vertex="1" parent="1">
          <mxGeometry x="20" y="240" width="30" height="30" as="geometry" />
        </mxCell>
        <mxCell id="78Ulww8GTOkkOSmPsYwS-7" value="" style="endArrow=classic;html=1;rounded=0;exitX=0;exitY=1;exitDx=0;exitDy=0;entryX=1;entryY=0;entryDx=0;entryDy=0;" edge="1" parent="1" source="78Ulww8GTOkkOSmPsYwS-4" target="78Ulww8GTOkkOSmPsYwS-6">
          <mxGeometry width="50" height="50" relative="1" as="geometry">
            <mxPoint x="210" y="230" as="sourcePoint" />
            <mxPoint x="57" y="288" as="targetPoint" />
          </mxGeometry>
        </mxCell>
        <mxCell id="78Ulww8GTOkkOSmPsYwS-8" value="P" style="ellipse;whiteSpace=wrap;html=1;aspect=fixed;" vertex="1" parent="1">
          <mxGeometry x="-50" y="300" width="30" height="30" as="geometry" />
        </mxCell>
        <mxCell id="78Ulww8GTOkkOSmPsYwS-9" value="" style="endArrow=classic;html=1;rounded=0;exitX=0;exitY=1;exitDx=0;exitDy=0;entryX=1;entryY=0;entryDx=0;entryDy=0;" edge="1" parent="1" source="78Ulww8GTOkkOSmPsYwS-6" target="78Ulww8GTOkkOSmPsYwS-8">
          <mxGeometry width="50" height="50" relative="1" as="geometry">
            <mxPoint x="20" y="270" as="sourcePoint" />
            <mxPoint x="-58" y="308" as="targetPoint" />
          </mxGeometry>
        </mxCell>
        <mxCell id="78Ulww8GTOkkOSmPsYwS-10" value="Y" style="ellipse;whiteSpace=wrap;html=1;aspect=fixed;" vertex="1" parent="1">
          <mxGeometry x="90" y="300" width="30" height="30" as="geometry" />
        </mxCell>
        <mxCell id="78Ulww8GTOkkOSmPsYwS-11" value="" style="endArrow=classic;html=1;rounded=0;exitX=1;exitY=1;exitDx=0;exitDy=0;entryX=0;entryY=0;entryDx=0;entryDy=0;" edge="1" parent="1" source="78Ulww8GTOkkOSmPsYwS-6" target="78Ulww8GTOkkOSmPsYwS-10">
          <mxGeometry width="50" height="50" relative="1" as="geometry">
            <mxPoint x="80" y="262" as="sourcePoint" />
            <mxPoint x="178" y="300" as="targetPoint" />
          </mxGeometry>
        </mxCell>
        <mxCell id="78Ulww8GTOkkOSmPsYwS-14" value="L" style="ellipse;whiteSpace=wrap;html=1;aspect=fixed;" vertex="1" parent="1">
          <mxGeometry x="40" y="370" width="30" height="30" as="geometry" />
        </mxCell>
        <mxCell id="78Ulww8GTOkkOSmPsYwS-17" value="" style="endArrow=classic;html=1;rounded=0;entryX=1;entryY=0;entryDx=0;entryDy=0;exitX=0;exitY=1;exitDx=0;exitDy=0;" edge="1" parent="1" source="78Ulww8GTOkkOSmPsYwS-10" target="78Ulww8GTOkkOSmPsYwS-14">
          <mxGeometry width="50" height="50" relative="1" as="geometry">
            <mxPoint x="53.5" y="330" as="sourcePoint" />
            <mxPoint x="76.5" y="376" as="targetPoint" />
          </mxGeometry>
        </mxCell>
        <mxCell id="78Ulww8GTOkkOSmPsYwS-20" value="H" style="ellipse;whiteSpace=wrap;html=1;aspect=fixed;" vertex="1" parent="1">
          <mxGeometry x="310" y="240" width="30" height="30" as="geometry" />
        </mxCell>
        <mxCell id="78Ulww8GTOkkOSmPsYwS-21" value="E" style="ellipse;whiteSpace=wrap;html=1;aspect=fixed;" vertex="1" parent="1">
          <mxGeometry x="240" y="300" width="30" height="30" as="geometry" />
        </mxCell>
        <mxCell id="78Ulww8GTOkkOSmPsYwS-22" value="" style="endArrow=classic;html=1;rounded=0;exitX=0;exitY=1;exitDx=0;exitDy=0;entryX=1;entryY=0;entryDx=0;entryDy=0;" edge="1" parent="1" source="78Ulww8GTOkkOSmPsYwS-20" target="78Ulww8GTOkkOSmPsYwS-21">
          <mxGeometry width="50" height="50" relative="1" as="geometry">
            <mxPoint x="310" y="270" as="sourcePoint" />
            <mxPoint x="232" y="308" as="targetPoint" />
          </mxGeometry>
        </mxCell>
        <mxCell id="78Ulww8GTOkkOSmPsYwS-23" value="I" style="ellipse;whiteSpace=wrap;html=1;aspect=fixed;" vertex="1" parent="1">
          <mxGeometry x="380" y="300" width="30" height="30" as="geometry" />
        </mxCell>
        <mxCell id="78Ulww8GTOkkOSmPsYwS-24" value="" style="endArrow=classic;html=1;rounded=0;exitX=1;exitY=1;exitDx=0;exitDy=0;entryX=0;entryY=0;entryDx=0;entryDy=0;" edge="1" parent="1" source="78Ulww8GTOkkOSmPsYwS-20" target="78Ulww8GTOkkOSmPsYwS-23">
          <mxGeometry width="50" height="50" relative="1" as="geometry">
            <mxPoint x="370" y="262" as="sourcePoint" />
            <mxPoint x="468" y="300" as="targetPoint" />
          </mxGeometry>
        </mxCell>
        <mxCell id="78Ulww8GTOkkOSmPsYwS-25" value="C" style="ellipse;whiteSpace=wrap;html=1;aspect=fixed;" vertex="1" parent="1">
          <mxGeometry x="280" y="370" width="30" height="30" as="geometry" />
        </mxCell>
        <mxCell id="78Ulww8GTOkkOSmPsYwS-26" value="" style="endArrow=classic;html=1;rounded=0;entryX=0.334;entryY=0.072;entryDx=0;entryDy=0;exitX=1;exitY=1;exitDx=0;exitDy=0;entryPerimeter=0;" edge="1" parent="1" source="78Ulww8GTOkkOSmPsYwS-21" target="78Ulww8GTOkkOSmPsYwS-25">
          <mxGeometry width="50" height="50" relative="1" as="geometry">
            <mxPoint x="260" y="330" as="sourcePoint" />
            <mxPoint x="308" y="368" as="targetPoint" />
          </mxGeometry>
        </mxCell>
        <mxCell id="78Ulww8GTOkkOSmPsYwS-27" value="N" style="ellipse;whiteSpace=wrap;html=1;aspect=fixed;" vertex="1" parent="1">
          <mxGeometry x="330" y="370" width="30" height="30" as="geometry" />
        </mxCell>
        <mxCell id="78Ulww8GTOkkOSmPsYwS-30" value="" style="endArrow=classic;html=1;rounded=0;entryX=1;entryY=0;entryDx=0;entryDy=0;exitX=0;exitY=1;exitDx=0;exitDy=0;" edge="1" parent="1" source="78Ulww8GTOkkOSmPsYwS-23" target="78Ulww8GTOkkOSmPsYwS-27">
          <mxGeometry width="50" height="50" relative="1" as="geometry">
            <mxPoint x="343.5" y="330" as="sourcePoint" />
            <mxPoint x="366.5" y="376" as="targetPoint" />
          </mxGeometry>
        </mxCell>
        <mxCell id="78Ulww8GTOkkOSmPsYwS-33" value="E" style="ellipse;whiteSpace=wrap;html=1;aspect=fixed;" vertex="1" parent="1">
          <mxGeometry x="700" y="180" width="30" height="30" as="geometry" />
        </mxCell>
        <mxCell id="78Ulww8GTOkkOSmPsYwS-34" value="" style="endArrow=classic;html=1;rounded=0;exitX=1;exitY=1;exitDx=0;exitDy=0;entryX=0;entryY=0;entryDx=0;entryDy=0;" edge="1" parent="1" source="78Ulww8GTOkkOSmPsYwS-33" target="78Ulww8GTOkkOSmPsYwS-49">
          <mxGeometry width="50" height="50" relative="1" as="geometry">
            <mxPoint x="910.0000000000001" y="220" as="sourcePoint" />
            <mxPoint x="824.3933982822059" y="244.39339828220602" as="targetPoint" />
          </mxGeometry>
        </mxCell>
        <mxCell id="78Ulww8GTOkkOSmPsYwS-35" value="N" style="ellipse;whiteSpace=wrap;html=1;aspect=fixed;" vertex="1" parent="1">
          <mxGeometry x="570" y="240" width="30" height="30" as="geometry" />
        </mxCell>
        <mxCell id="78Ulww8GTOkkOSmPsYwS-36" value="" style="endArrow=classic;html=1;rounded=0;exitX=0;exitY=1;exitDx=0;exitDy=0;entryX=1;entryY=0;entryDx=0;entryDy=0;" edge="1" parent="1" source="78Ulww8GTOkkOSmPsYwS-33" target="78Ulww8GTOkkOSmPsYwS-35">
          <mxGeometry width="50" height="50" relative="1" as="geometry">
            <mxPoint x="760" y="230" as="sourcePoint" />
            <mxPoint x="607" y="288" as="targetPoint" />
          </mxGeometry>
        </mxCell>
        <mxCell id="78Ulww8GTOkkOSmPsYwS-37" value="_" style="ellipse;whiteSpace=wrap;html=1;aspect=fixed;" vertex="1" parent="1">
          <mxGeometry x="500" y="300" width="30" height="30" as="geometry" />
        </mxCell>
        <mxCell id="78Ulww8GTOkkOSmPsYwS-38" value="" style="endArrow=classic;html=1;rounded=0;exitX=0;exitY=1;exitDx=0;exitDy=0;entryX=1;entryY=0;entryDx=0;entryDy=0;" edge="1" parent="1" source="78Ulww8GTOkkOSmPsYwS-35" target="78Ulww8GTOkkOSmPsYwS-37">
          <mxGeometry width="50" height="50" relative="1" as="geometry">
            <mxPoint x="570" y="270" as="sourcePoint" />
            <mxPoint x="492" y="308" as="targetPoint" />
          </mxGeometry>
        </mxCell>
        <mxCell id="78Ulww8GTOkkOSmPsYwS-39" value="V" style="ellipse;whiteSpace=wrap;html=1;aspect=fixed;" vertex="1" parent="1">
          <mxGeometry x="640" y="300" width="30" height="30" as="geometry" />
        </mxCell>
        <mxCell id="78Ulww8GTOkkOSmPsYwS-40" value="" style="endArrow=classic;html=1;rounded=0;exitX=1;exitY=1;exitDx=0;exitDy=0;entryX=0;entryY=0;entryDx=0;entryDy=0;" edge="1" parent="1" source="78Ulww8GTOkkOSmPsYwS-35" target="78Ulww8GTOkkOSmPsYwS-39">
          <mxGeometry width="50" height="50" relative="1" as="geometry">
            <mxPoint x="630" y="262" as="sourcePoint" />
            <mxPoint x="728" y="300" as="targetPoint" />
          </mxGeometry>
        </mxCell>
        <mxCell id="78Ulww8GTOkkOSmPsYwS-41" value="U" style="ellipse;whiteSpace=wrap;html=1;aspect=fixed;" vertex="1" parent="1">
          <mxGeometry x="540" y="370" width="30" height="30" as="geometry" />
        </mxCell>
        <mxCell id="78Ulww8GTOkkOSmPsYwS-42" value="" style="endArrow=classic;html=1;rounded=0;entryX=0.334;entryY=0.072;entryDx=0;entryDy=0;exitX=1;exitY=1;exitDx=0;exitDy=0;entryPerimeter=0;" edge="1" parent="1" source="78Ulww8GTOkkOSmPsYwS-37" target="78Ulww8GTOkkOSmPsYwS-41">
          <mxGeometry width="50" height="50" relative="1" as="geometry">
            <mxPoint x="520" y="330" as="sourcePoint" />
            <mxPoint x="568" y="368" as="targetPoint" />
          </mxGeometry>
        </mxCell>
        <mxCell id="78Ulww8GTOkkOSmPsYwS-43" value="I" style="ellipse;whiteSpace=wrap;html=1;aspect=fixed;" vertex="1" parent="1">
          <mxGeometry x="590" y="370" width="30" height="30" as="geometry" />
        </mxCell>
        <mxCell id="78Ulww8GTOkkOSmPsYwS-46" value="" style="endArrow=classic;html=1;rounded=0;entryX=1;entryY=0;entryDx=0;entryDy=0;exitX=0;exitY=1;exitDx=0;exitDy=0;" edge="1" parent="1" source="78Ulww8GTOkkOSmPsYwS-39" target="78Ulww8GTOkkOSmPsYwS-43">
          <mxGeometry width="50" height="50" relative="1" as="geometry">
            <mxPoint x="603.5" y="330" as="sourcePoint" />
            <mxPoint x="626.5" y="376" as="targetPoint" />
          </mxGeometry>
        </mxCell>
        <mxCell id="78Ulww8GTOkkOSmPsYwS-49" value="I" style="ellipse;whiteSpace=wrap;html=1;aspect=fixed;" vertex="1" parent="1">
          <mxGeometry x="860" y="240" width="30" height="30" as="geometry" />
        </mxCell>
        <mxCell id="78Ulww8GTOkkOSmPsYwS-50" value="R" style="ellipse;whiteSpace=wrap;html=1;aspect=fixed;" vertex="1" parent="1">
          <mxGeometry x="790" y="300" width="30" height="30" as="geometry" />
        </mxCell>
        <mxCell id="78Ulww8GTOkkOSmPsYwS-51" value="" style="endArrow=classic;html=1;rounded=0;exitX=0;exitY=1;exitDx=0;exitDy=0;entryX=1;entryY=0;entryDx=0;entryDy=0;" edge="1" parent="1" source="78Ulww8GTOkkOSmPsYwS-49" target="78Ulww8GTOkkOSmPsYwS-50">
          <mxGeometry width="50" height="50" relative="1" as="geometry">
            <mxPoint x="860" y="270" as="sourcePoint" />
            <mxPoint x="782" y="308" as="targetPoint" />
          </mxGeometry>
        </mxCell>
        <mxCell id="78Ulww8GTOkkOSmPsYwS-52" value="Y" style="ellipse;whiteSpace=wrap;html=1;aspect=fixed;" vertex="1" parent="1">
          <mxGeometry x="930" y="300" width="30" height="30" as="geometry" />
        </mxCell>
        <mxCell id="78Ulww8GTOkkOSmPsYwS-53" value="" style="endArrow=classic;html=1;rounded=0;exitX=1;exitY=1;exitDx=0;exitDy=0;entryX=0;entryY=0;entryDx=0;entryDy=0;" edge="1" parent="1" source="78Ulww8GTOkkOSmPsYwS-49" target="78Ulww8GTOkkOSmPsYwS-52">
          <mxGeometry width="50" height="50" relative="1" as="geometry">
            <mxPoint x="920" y="262" as="sourcePoint" />
            <mxPoint x="1018" y="300" as="targetPoint" />
          </mxGeometry>
        </mxCell>
        <mxCell id="78Ulww8GTOkkOSmPsYwS-54" value="S" style="ellipse;whiteSpace=wrap;html=1;aspect=fixed;" vertex="1" parent="1">
          <mxGeometry x="830" y="370" width="30" height="30" as="geometry" />
        </mxCell>
        <mxCell id="78Ulww8GTOkkOSmPsYwS-55" value="" style="endArrow=classic;html=1;rounded=0;entryX=0.334;entryY=0.072;entryDx=0;entryDy=0;exitX=1;exitY=1;exitDx=0;exitDy=0;entryPerimeter=0;" edge="1" parent="1" source="78Ulww8GTOkkOSmPsYwS-50" target="78Ulww8GTOkkOSmPsYwS-54">
          <mxGeometry width="50" height="50" relative="1" as="geometry">
            <mxPoint x="810" y="330" as="sourcePoint" />
            <mxPoint x="858" y="368" as="targetPoint" />
          </mxGeometry>
        </mxCell>
        <mxCell id="78Ulww8GTOkkOSmPsYwS-56" value="T" style="ellipse;whiteSpace=wrap;html=1;aspect=fixed;" vertex="1" parent="1">
          <mxGeometry x="880" y="370" width="30" height="30" as="geometry" />
        </mxCell>
        <mxCell id="78Ulww8GTOkkOSmPsYwS-59" value="" style="endArrow=classic;html=1;rounded=0;entryX=1;entryY=0;entryDx=0;entryDy=0;exitX=0;exitY=1;exitDx=0;exitDy=0;" edge="1" parent="1" source="78Ulww8GTOkkOSmPsYwS-52" target="78Ulww8GTOkkOSmPsYwS-56">
          <mxGeometry width="50" height="50" relative="1" as="geometry">
            <mxPoint x="893.5" y="330" as="sourcePoint" />
            <mxPoint x="916.5" y="376" as="targetPoint" />
          </mxGeometry>
        </mxCell>
      </root>
    </mxGraphModel>
  </diagram>
</mxfile>
